<svg xmlns="http://www.w3.org/2000/svg" data-name="Layer 1" viewBox="0 0 517 516"><g data-name="creative solutions"><path fill="#070606" d="M436 178.72c-.75-2-2.19-5.19-7-11a97.57 97.57 0 0 0-17-16c-5.53-4.14-9.59-7.18-16-10a55.61 55.61 0 0 0-22-5 43.4 43.4 0 0 0-9 1c-3.47.75-5.71 1.27-8 3s-1.87 2.76-4 4c-3.1 1.8-4.85.19-8 2-1.44.83-1.06 1.16-4 4a58.33 58.33 0 0 1-6 5c-4.35 3.29-4.64 2.88-7 5a21.32 21.32 0 0 0-5 6c-1 1.94-2.55 4.75-2 8 .08.49.1.3 2 5 .67 1.66 1.33 3.33 2 5l2 5s2 2.87-3.79 13.53a62.3 62.3 0 0 0 11.29-21c.59-2.14.92-4 2-7a53.12 53.12 0 0 1 13-20c-1.5 11.5 7.5 28.5 14.5 33.5a84.69 84.69 0 0 1 13 12c3 8 4 5 4 5-4-10 9-14 12 1s-12 18-12 18c3.06 3.68 3.86 6.78 4 9 .11 1.82-.28 2.15 0 4 .15 1 .57 2.95 4 8 2.06 3 3.09 4.55 4 5 3.93 1.93 9-1.37 10-2 2.2-1.42 2.94-2.65 7-8 5.29-7 4.7-5.76 7-9 2.94-4.14 3.21-5.14 8-13 5.88-9.65 6-9 8-13 2.83-5.66 4.71-9.51 5-15a30.53 30.53 0 0 0-2-12.03Zm-108 .34-1 .31c0-.12-4-12.48 8.25-18.6l.45.89c-11.46 5.74-7.77 17.28-7.7 17.4Zm47.78 8.09c-18-10-19.24-31.2-19.25-31.41l1-.05c0 .21 1.2 20.84 18.74 30.59Zm21.58 56a4 4 0 0 1-1.12-.17c-5.13-1.56-7.6-13.61-7.7-14.13l1-.19c0 .12 2.45 12 7 13.36 1.29.39 2.68-.15 4.14-1.62l.71.71a5.86 5.86 0 0 1-4.06 2Zm9.19-45.24c-2-5.87-11.85-21.73-11.95-21.89l.85-.53c.41.66 10.06 16.12 12.05 22.11Zm4.85 27.18-.74-.67c8.7-9.67 7.88-16.53 7.87-16.59l1-.14c0 .25.89 7.31-8.16 17.36Zm8.13-33.3c-2.94-44-56-44.53-56.5-44.53v-1c.54 0 54.5.52 57.5 45.46Z"/><path d="M154.79 209.52c-.95-2.59-3.18-4.16-5-3.5s-2.53 3.3-1.58 5.89 3.18 4.17 5 3.51 2.52-3.3 1.58-5.9Zm-3.31 2.11c-.54.2-1.2-.27-1.48-1s-.07-1.55.47-1.74 1.2.27 1.47 1 .06 1.55-.46 1.74Zm2 1.12a.62.62 0 0 1-.46-.61c0-.3.2-.5.45-.46a.62.62 0 0 1 .46.61c.07.3-.18.5-.43.46Z"/><path fill="#070606" d="M176 346.72a25.75 25.75 0 0 0 1-10 21.46 21.46 0 0 0-3-8c-1.58-2.89-7.23-13.28-9-24-.23-1.37-.32-5.41-.5-13.5-.13-5.9-.24-10.74 0-17 .13-3.47.35-6.82.63-10q-1 .21-2.13.54a25.12 25.12 0 0 0-10 5c-4.14 3.63-5.69 8.17-7 12-1.37 4-2.16 9.94-2.31 10-1.5.74 8.92 16.93 14.31 30 3.09 7.5 5.56 16.42 7 39 .65 10.16.91 20.26.91 30 9.29-7.12 10.11-12.58 10.09-15a64.7 64.7 0 0 0-1-8c-1.27-7.45-2.39-8.43-2-12s1.56-3.19 3-9.04Zm-9.52-17.88-1-.25c.48-1.92-.5-5.85-2.77-11.07a31.17 31.17 0 0 0-2.11-3.89c-6.82-11-4.24-36.87-4.13-38l1 .11c0 .26-2.65 26.59 4 37.34a32.28 32.28 0 0 1 2.18 4c1.67 3.92 3.52 9.02 2.83 11.76Zm2.87 52.23-.71-.71s3.77-3.92 1.87-11.52l1-.25c2.02 8.19-1.99 12.31-2.16 12.48Zm1-31-.77-.64a9.75 9.75 0 0 0 1-11.41l.83-.55a10.76 10.76 0 0 1-1.03 12.53ZM162 187.72a30.36 30.36 0 0 0-10-11c-2.61-1.83-6-4.24-11-5-1.08-.17-4.38-.11-11 0-3.77.06-4.85.12-7 0-4.21-.24-4.56-.73-8-1a44.59 44.59 0 0 0-13 1 55.37 55.37 0 0 0-7 2 69.73 69.73 0 0 0-14 6 43.84 43.84 0 0 0-15 14c-3.59 5.56-4.87 10.58-6 15a67.07 67.07 0 0 0-2 16 119.94 119.94 0 0 0 1 14c.76 6.92 1.17 7.25 1 10a32.34 32.34 0 0 1-4 13c-2.11 4.18-2.65 3.59-7.5 11.5-3.73 6.07-4.51 8.21-5 10a31.16 31.16 0 0 0-1 9 36.52 36.52 0 0 0 1 7c.72 3.33 1.24 4.44 3 10s2.69 8.56 3 11a36.48 36.48 0 0 1 0 9c-.35 2.77-1.24 5.55-3 11-1.91 5.89-2.11 5.76-3 9a44.33 44.33 0 0 0-2 11 37.29 37.29 0 0 0 1 10 32.78 32.78 0 0 0 4 10 26.44 26.44 0 0 0 10 10 25.57 25.57 0 0 0 12 3 25.87 25.87 0 0 0 10-2l1.88-1.46c.6-4.3 1.28-8.47 1.62-12a221.17 221.17 0 0 1 7-39c4.27-15.82 7.82-22 9-24a108.26 108.26 0 0 1 13-17c5.91-6.68 7.41-7.22 13-14 5.06-6.15 7.8-9.53 10-15a43.28 43.28 0 0 0 3-15 39.91 39.91 0 0 0-3-18 36.69 36.69 0 0 0-4-7 22.7 22.7 0 0 0 4-6 19.77 19.77 0 0 0 2-10c-.23-2.87-1.16-4.91-3-9a54 54 0 0 0-3.5-6.5c-.64-1-1.59-2.35-6-8q-2-2.57-4-5l4-1a29.15 29.15 0 0 1 14 2 27.85 27.85 0 0 1 9 6c1.47 1.49 2.81 3.49 5.5 7.5s2.56 4.28 4 6a21.39 21.39 0 0 0 7 6 23.63 23.63 0 0 0 2-6c1.52-8.17-1.8-14.76-3-17.04ZM62.81 375.18a19.26 19.26 0 0 1-9.72-10c-2-5.09-1.54-11 1.45-17.68 8.8-19.56 7-28.6 7-28.69l1-.21c.08.37 1.93 9.39-7 29.31C52.58 354.3 52.1 360 54 364.8a18.51 18.51 0 0 0 9.18 9.45ZM60.4 274c-9.67 13.54-2.06 25.31-2 25.43l-.83.55c-.08-.12-8.07-12.45 2-26.56 9.48-13.27 9.9-15.66 9.91-15.75h1c.02.27-.27 2.6-10.08 16.33Zm17.1 71.74-1-.06c0-.71 1.09-17.27 8.14-24.33l.71.71c-6.79 6.8-7.84 23.52-7.85 23.69Zm-1.06-116.25-.89.46c-.14-.28-13.87-27.62 14.16-47.64l.58.81C63 202.65 76.3 229.22 76.44 229.49Zm47 3c.34.55 8 13.6-12 40.56-.19.2-14 14.14-18.93 27.87l-.94-.33c5-13.95 19-28.05 19.11-28.19 19.53-26.36 12-39.25 11.93-39.38Zm-4-15.49-.87-.49c4.8-8.64-4.89-24.33-5-24.49l.85-.53c.42.62 10.1 16.32 5.01 25.51ZM157 199.25a25.23 25.23 0 0 0-11.74-19.59l.48-.88a26.3 26.3 0 0 1 12.26 20.4Z"/><path fill="#f38704" d="M123.48 284.35c-5.17 6.19-6.76 6.9-12.48 13.37a108.26 108.26 0 0 0-13 17c-1.18 2-4.73 8.18-9 24a221.17 221.17 0 0 0-7 39c-.93 9.74-4.35 23.92-2 33 1.46 5.69 25.88 7.06 37.9 7.4a190.91 190.91 0 0 0-2.1 33.72c42.59 6.49 47.28 1.4 47.33-.49 0-1 0-1.93.08-2.9 1.82-20.42 4-53.82 1.79-87.73-1.44-22.58-3.91-31.5-7-39-4.45-10.8-12.35-23.73-14.1-28.31-11.72 4.59-18.13-4.69-20.42-9.06Z"/><path fill="#020202" d="M148.84 455.51c-7.09 0-17.58-.81-33.12-3.18l-.41-.06v-.42a191.36 191.36 0 0 1 2-33.25c-16.61-.5-36.39-2.25-37.81-7.76-1.74-6.74-.36-16.22.87-24.58.45-3.08.87-6 1.12-8.59A220.42 220.42 0 0 1 88.4 339l.11-.43c2.9-10.74 5.95-18.86 9.06-24.13 4.11-7 8.86-12.34 13.05-17.08 2.66-3 4.39-4.73 6.07-6.41a90.73 90.73 0 0 0 6.4-6.94l.48-.58.35.66c2.16 4.13 8.41 13.25 19.8 8.83l.47-.18.17.47c.73 1.89 2.59 5.36 4.73 9.37 3 5.63 6.78 12.64 9.37 18.93 3.31 8 5.65 17.4 7 39.15 1.67 26.16 1.07 55.7-1.79 87.81a18.81 18.81 0 0 0-.07 2v.87a2.32 2.32 0 0 1-1 1.71c-1.29 1.16-4.8 2.46-13.76 2.46Zm-32.55-4.11c35.76 5.42 43.89 2.45 45.73.91a1.47 1.47 0 0 0 .61-1v-.85c0-.68 0-1.38.07-2.08 2.86-32.06 3.46-61.55 1.79-87.65-1.38-21.62-3.69-30.89-7-38.84-2.57-6.24-6.32-13.22-9.33-18.84-2.08-3.89-3.76-7-4.59-9-11.28 4.08-17.7-4.29-20.23-8.82-2.53 3-4.22 4.67-6 6.45s-3.39 3.39-6 6.37A107.77 107.77 0 0 0 98.43 315c-3.07 5.19-6.08 13.23-9 23.88l-.12.43a220.11 220.11 0 0 0-6.86 38.48c-.26 2.63-.68 5.55-1.13 8.64-1.21 8.27-2.58 17.64-.89 24.19 1 3.76 15 6.39 37.43 7h.57l-.09.56a189.37 189.37 0 0 0-2.05 33.22Z"/><path d="M108.75 127.22A43.8 43.8 0 0 1 65 83.47c0-11.57 5.58-23.94 15.31-33.94s22-15.81 33.44-15.81a43.8 43.8 0 0 1 43.75 43.75c0 11.56-5.58 23.93-15.31 33.93s-21.97 15.82-33.44 15.82Zm5-92.5C90.54 34.72 66 59.77 66 83.47a42.8 42.8 0 0 0 42.75 42.75c23.2 0 47.75-25.06 47.75-48.75a42.8 42.8 0 0 0-42.75-42.75ZM114.5 143.22c-3.31 0-6-3.37-6-7.5s2.69-7.5 6-7.5 6 3.36 6 7.5-2.69 7.5-6 7.5Zm0-14c-2.76 0-5 2.91-5 6.5s2.24 6.5 5 6.5 5-2.92 5-6.5-2.25-6.5-5-6.5ZM115.5 162.22c-2.21 0-4-2.25-4-5s1.79-5 4-5 4 2.24 4 5-1.8 5-4 5Zm0-9c-1.66 0-3 1.79-3 4s1.34 4 3 4 3-1.8 3-4-1.35-4-3-4Z"/><path fill="#050505" d="M149.59 455.53c-7.15 0-17.82-.88-33.67-3.32l.15-1c34.8 5.36 43.71 3 45.92 1.2a1.53 1.53 0 0 0 .64-1.09v-.92a19.48 19.48 0 0 1 .07-2c2.82-31.53 3.44-61.85 1.79-87.65-1.38-21.65-3.69-30.91-7-38.84-2.58-6.24-6.33-13.24-9.34-18.86-4-7.56-5.44-10.3-5.11-11.32a.85.85 0 0 1 .17-.3c.06-.23.16-.8.27-1.39a67.32 67.32 0 0 1 2-8.49c1.3-3.78 2.91-8.49 7.15-12.21a25.42 25.42 0 0 1 10.19-5.1 32.21 32.21 0 0 1 6.1-1.15c2.16-.25 3.46-.39 4.67-1.71 2.14-2.33 2-6 1.87-7.64-.09-1.76-.67-3.37-2-6.85-.95-2.54-1.64-4-2.19-5.26a31.49 31.49 0 0 1-1.82-4.77c-1-3.35-1.64-5.56-1-8.26a23 23 0 0 1 2.05-5.12c.3-.56.57-1 .81-1.41a9 9 0 0 0 1.14-2.49c.29-1 .68-2.47.05-3.62-.51-.93-1.44-1.28-2.62-1.73h-.12c-3.27-1.24-6-2.52-7-3a21.75 21.75 0 0 1-7.17-6.12 18.23 18.23 0 0 1-1.74-2.48c-.46-.76-1.1-1.79-2.29-3.57-2.66-4-4-6-5.44-7.42a27.13 27.13 0 0 0-8.83-5.89 28.34 28.34 0 0 0-7.86-2 29.08 29.08 0 0 0-5.9 0l-3.17.8c1.19 1.46 2.37 2.94 3.51 4.4 4.61 5.91 5.43 7.1 6 8a53 53 0 0 1 3.53 6.56c1.87 4.13 2.81 6.21 3.05 9.17a20.23 20.23 0 0 1-2.05 10.24 23.08 23.08 0 0 1-3.81 5.83 37.6 37.6 0 0 1 3.82 6.77 40.43 40.43 0 0 1 3 18.21 43.62 43.62 0 0 1-3 15.17c-2.27 5.66-5.21 9.23-10.08 15.13a92.55 92.55 0 0 1-7 7.67c-1.66 1.66-3.38 3.38-6 6.35-4.16 4.71-8.88 10-12.94 16.92-3.06 5.18-6.07 13.21-9 23.88l-.13.47a220.76 220.76 0 0 0-6.85 38.44c-.25 2.63-.68 5.55-1.13 8.65-1.21 8.27-2.58 17.64-.89 24.18 1.29 5 23.84 7 42.75 7.12a1 1 0 0 0 1-.82c4.65-26.42 2.79-89 2.77-89.66h1c0 .63 1.88 63.35-2.78 89.86a2 2 0 0 1-2 1.65c-9.79-.09-41.91-.91-43.71-7.87-1.74-6.74-.35-16.21.87-24.58.45-3.08.87-6 1.12-8.59a221.06 221.06 0 0 1 6.89-38.61l.12-.47c2.91-10.76 5.95-18.87 9.06-24.13 4.11-7 8.86-12.33 13.05-17.07 2.65-3 4.38-4.73 6-6.4a92.33 92.33 0 0 0 6.94-7.59c5.21-6.32 7.81-9.59 9.92-14.87a42.63 42.63 0 0 0 3-14.83 39.68 39.68 0 0 0-3-17.79 36.33 36.33 0 0 0-3.95-6.9l-.24-.33.28-.3a22.12 22.12 0 0 0 3.91-5.87 19.19 19.19 0 0 0 2-9.75c-.23-2.79-1.14-4.81-3-8.84a51.81 51.81 0 0 0-3.47-6.44c-.58-.91-1.38-2.08-6-8-1.29-1.66-2.63-3.33-4-5l-.5-.61 4.77-1.19a29.67 29.67 0 0 1 14.31 2 28.13 28.13 0 0 1 9.16 6.12c1.51 1.52 2.86 3.54 5.56 7.57 1.2 1.79 1.84 2.83 2.31 3.59a15.17 15.17 0 0 0 1.66 2.36 20.82 20.82 0 0 0 6.84 5.88c1 .49 3.73 1.75 7 3l.12.05c1.26.48 2.46.93 3.14 2.18.82 1.51.35 3.23 0 4.37a9.93 9.93 0 0 1-1.26 2.74c-.23.38-.49.82-.78 1.36a21.88 21.88 0 0 0-2 4.88c-.55 2.34-.06 4.16 1 7.74a30.47 30.47 0 0 0 1.77 4.65 75.69 75.69 0 0 1 2.22 5.32c1.24 3.32 1.92 5.16 2 7.15.08 1.72.29 5.73-2.13 8.36-1.47 1.6-3.07 1.78-5.29 2a32.22 32.22 0 0 0-5.94 1.12 24.6 24.6 0 0 0-9.81 4.89c-4 3.54-5.54 7.92-6.86 11.79a64.23 64.23 0 0 0-1.95 8.34c-.28 1.48-.33 1.76-.48 1.88 0 1 2.55 5.83 5 10.48 3 5.64 6.78 12.66 9.38 18.95 3.31 8 5.64 17.37 7 39.15 1.65 25.86 1 56.22-1.8 87.81-.06.64-.06 1.26-.06 1.92v.95a2.48 2.48 0 0 1-1 1.83c-1.17 1.3-4.77 2.39-12.71 2.39Z"/><path fill="#050505" d="M96.18 504.32c-2.94-13.37-5.43-25.69-7.42-36.64-9.13-50.41-4-53.52-3.38-53.71l.3.95c-.14.11-4.78 3.73 4.07 52.59 2 10.93 4.47 23.24 7.41 36.6ZM123.3 504.35c-11.07-38.23-8.35-70.49-5.74-86.31l1 .16c-2.6 15.74-5.31 47.83 5.71 85.88Z"/><path fill="#050505" d="m79.71 504.31-1-.19c1.88-9.56 5.69-27 10.07-36.73l.45.2h.51l-.05.21c-4.32 9.6-8.11 27-9.98 36.51ZM160.81 504.22h-1c.42-23.93-1.45-40.47-5.57-49.15l.9-.43c4.19 8.82 6.1 25.5 5.67 49.58ZM137.49 200.8l-1-.17a9.65 9.65 0 0 1 8.43-7.41l.14 1c-6.53.92-7.53 6.35-7.57 6.58ZM164.5 245.37a8.16 8.16 0 0 1-6.41-2.86l.81-.59c.17.23 4.18 5.53 13-.12l.54.84a14.81 14.81 0 0 1-7.94 2.73Z"/><path fill="#020202" d="m332.54 504.195 10.86-184.971.998.058-10.86 184.972z"/><path fill="#020202" d="M343.77 319.72 290.32 298l.23-.48c0-.08 3.92-8.36 7.93-18.89 5-13.12 8.07-24.12 8.85-31.82.08-.73.13-1.42.17-2.1v-.72l58.07 25.59-.4.91-56.76-25c0 .47-.07.94-.13 1.43-.8 7.89-3.8 18.69-8.91 32.07-3.47 9.13-6.85 16.58-7.74 18.49l52.48 21.34Z"/><path fill="#020202" d="M298.84 279.27c-10.73-2.37-29.84-8.7-37.29-24.34-.19-.25-22.32-32.12-32.52-51.25a68.23 68.23 0 0 0-17-20.86 166.26 166.26 0 0 0-15.64-11.44 40.1 40.1 0 0 1-9.52-8.33c-3.06-3.77-4.2-6.64-3.4-8.51.57-1.34 2.09-2.12 4.5-2.32l.08 1c-2 .17-3.24.75-3.66 1.72-.63 1.49.49 4.08 3.26 7.49a38.48 38.48 0 0 0 9.28 8.11A168.75 168.75 0 0 1 212.65 182a69.18 69.18 0 0 1 17.27 21.17c10.16 19.08 32.27 50.9 32.49 51.22 7.58 15.9 28.15 22 36.65 23.87Z"/><path fill="#020202" d="M197.21 162.57c-2 0-5.22-2.48-7.6-5.38-2.25-2.74-3.53-6.56-3-9.08a2.73 2.73 0 0 1 1.28-2 3.56 3.56 0 0 1 2.75-.09c2.53.77 5.28 3.31 6.84 6.32 2.09 4 2.44 8.85.74 10a1.72 1.72 0 0 1-1.01.23Zm-8-15.79a1.55 1.55 0 0 0-1.66 1.52c-.37 1.89.5 5.42 2.83 8.25 2.91 3.55 6.29 5.56 7.25 4.92s.93-4.82-1.07-8.68a11.85 11.85 0 0 0-6.26-5.79 3.76 3.76 0 0 0-1.09-.22Z"/><path fill="#020202" d="M204.63 161.6c-1.53 0-3.4-.95-6.6-4.9l-.07-.08v-.12a16.38 16.38 0 0 0-1.37-3.71 14 14 0 0 0-2.45-3.33l-.08-.09v-.11c-.55-1.62-1.72-5.63-.58-7.81a2.28 2.28 0 0 1 1.45-1.21c2.54-.72 6.1 3.64 9.54 8.17 3.07 4.06 4.57 8.45 3.74 10.94a3 3 0 0 1-2.09 2 5.14 5.14 0 0 1-1.49.25Zm-5.75-5.44c4.12 5 5.66 4.6 6.89 4.25a2 2 0 0 0 1.42-1.38c.72-2.15-.76-6.27-3.59-10-2.07-2.73-6.36-8.43-8.47-7.82a1.31 1.31 0 0 0-.83.71c-.65 1.24-.42 3.89.6 6.92a14.7 14.7 0 0 1 2.54 3.5 17.34 17.34 0 0 1 1.44 3.82ZM307.63 247.29c-23.66-10.41-51.83-49.54-62.84-65.88-2.16-3.22-4.61-6.32-6.93-9.23a40.94 40.94 0 0 1-6.34-12.32c-2-12.72-9.25-18.19-9.32-18.24-11.68-10.7-19.45-8-19.53-7.94-2.45 1.24-3.77 2.56-3.87 3.91-.11 1.6 1.49 3 2.85 4a14 14 0 0 0 2 1.19c11.13 3 12.28 14.3 12.3 14.41l-1 .09c0-.1-1.11-10.69-11.63-13.56a15.47 15.47 0 0 1-2.29-1.3c-2.25-1.56-3.39-3.24-3.28-4.88s1.63-3.33 4.47-4.75c.39-.15 8.48-3 20.57 8.08.27.19 7.64 5.74 9.65 18.79a41.41 41.41 0 0 0 6.15 11.91c2.33 2.93 4.79 6 7 9.3 11 16.27 39 55.22 62.41 65.53Z"/><path fill="#020202" d="m200 143.75-.72-.7a13.22 13.22 0 0 1 1.82-1.47l.57.82a11.6 11.6 0 0 0-1.67 1.35ZM194.13 136.56c-.57-.62-14.07-15.1-17.06-20.09-1.29-2.14-1.69-3.89-1.21-5.19a2.62 2.62 0 0 1 1.37-1.49c.5-.43 3.14-2.2 7.78 2.14 1.66 1.54 3.15 2.93 4.74 4.21 4.42 3.58 12.43 10.47 16.48 16.43l-.82.56c-4-5.85-11.91-12.67-16.29-16.21-1.61-1.31-3.12-2.7-4.79-4.26-4.38-4.09-6.46-2.11-6.48-2.09l-.08.08h-.11a1.61 1.61 0 0 0-.87 1c-.25.69-.25 2 1.14 4.31 2.93 4.9 16.79 19.77 16.93 19.91ZM362.74 504.23l-1-.02 2.68-189.17 2 .02-3.68 189.17zM426.62 504.28l-1-.12c2.3-19.1 2.76-64.63 2.85-83.32h1c-.08 18.71-.54 64.29-2.85 83.44ZM457.155 504.151l5.889-79.241.997.074-5.888 79.241z"/><path fill="#020202" d="M470.14 428a10.51 10.51 0 0 1-5.41-1.88c-7.79-4.87-43.37-4.92-43.73-4.92-.16 0-4 0-5.53-2.41-.87-1.32-.86-3.07 0-5.19l-1-70.9h1l1 71.11v.09c-.79 1.84-.84 3.31-.15 4.35 1.26 1.93 4.65 2 4.69 2 1.47 0 36.23 0 44.26 5.07 2.58 1.61 4.75 2.1 6.45 1.45a5.21 5.21 0 0 0 2.79-3.11c.05-1.47.67-27-8-81.84-8.42-53.35-64.26-86-70.23-89.35-9 25.57-29.69 48.38-29.9 48.61l-1 1.07.1-1.44c1.59-22.26-.81-41-5.84-45.59-4-3.61-7.65-3.87-7.69-3.87a8 8 0 0 0-2.74.35 29.32 29.32 0 0 1-3.16.64c-3.37.49-6.26.9-9.22 0-3.85-1.2-7.06-4.4-9.3-9.26a7.8 7.8 0 0 1-.65-2c-.2-.82-.54-2.21-1.38-5.09l-.11-.39c-1.37-4.65-2.05-7-2.86-8.52-1.71-3.28-3.05-5.88-5.84-7.82l-.42-.29a6.45 6.45 0 0 1-2.75-2.93 6.18 6.18 0 0 1 0-4.38 7.58 7.58 0 0 1 3.67-3.72 15.69 15.69 0 0 0 2.71-1.91 29.61 29.61 0 0 0 2.92-3l.76.65a28.56 28.56 0 0 1-3 3.08 17.38 17.38 0 0 1-2.83 2 6.71 6.71 0 0 0-3.28 3.24 5.17 5.17 0 0 0 0 3.63 5.58 5.58 0 0 0 2.39 2.48l.43.29c3 2.09 4.39 4.78 6.16 8.19.85 1.62 1.54 4 2.93 8.7l.11.39c.85 2.9 1.19 4.3 1.39 5.14a7.68 7.68 0 0 0 .58 1.79c2.12 4.6 5.13 7.62 8.7 8.73 2.74.85 5.53.45 8.76 0a26.24 26.24 0 0 0 3.08-.62 8.91 8.91 0 0 1 3-.38c.17 0 4.06.26 8.31 4.13 5.22 4.74 7.7 22.7 6.27 44.93 4.22-4.88 21.16-25.3 28.92-47.73l.2-.55.51.27c.62.34 62.33 33.78 71.26 90.37 8.91 56.39 8 81.85 8 82.1v.11a6.17 6.17 0 0 1-3.41 3.82 5.37 5.37 0 0 1-1.92.31Z"/><path fill="#020202" d="M395.72 251.81a6.45 6.45 0 0 1-2.94-.65c-1-.5-2-1.95-4.17-5.12-3.68-5.43-4-7.4-4.11-8.25a8.47 8.47 0 0 1-.05-2.33 9.77 9.77 0 0 0 .05-1.71 15.22 15.22 0 0 0-3.89-8.71l-.53-.65.82-.16c.59-.12 14.47-3.09 11.61-17.42-1-5-3.39-8.53-6.36-9.34a4.11 4.11 0 0 0-4.22 1.17c-1.39 1.57-1.57 4.14-.47 6.89l.07.17-.06.17a1.25 1.25 0 0 1-1.08.9c-.76 0-1.88-.69-3.8-5.79a84 84 0 0 0-12.85-11.86c-6.65-4.74-15.53-20.8-14.84-32.57a52.17 52.17 0 0 0-11.9 18.83 50.82 50.82 0 0 0-1.52 5.15c-.15.6-.3 1.2-.47 1.82-.22.8-.49 1.66-.81 2.55-.14.41-.3.84-.47 1.26v.11c-.15.41-.32.81-.49 1.22-.55 1.35-1.2 2.78-1.94 4.24l-.42.83q-.49 1-1.05 1.95c-.12.22-.25.46-.38.68l-.44.76-.71 1.05a2.62 2.62 0 0 1-.21.34c-.18.3-.38.62-.6.94a4.14 4.14 0 0 1-.23.35c-.13.22-.3.47-.46.7a48.76 48.76 0 0 1-3.2 4.23l-2.77 2.77 2.07-3.54.12-.21a50.09 50.09 0 0 0 2.39-5.1l.09-.21c.08-.23.17-.45.25-.66.18-.53.35-1 .47-1.48a2.79 2.79 0 0 0 .12-.39 14.77 14.77 0 0 0 .39-1.77c0-.17 0-.25.05-.33s.05-.35.06-.5 0-.24 0-.32a3.62 3.62 0 0 0-.24-1.87l-.05-.09-2.83-7.09-1.17-2.91c-.83-2.07-1.3-3.19-1.58-3.83a5.45 5.45 0 0 1-.45-1.27c-.57-3.41 1-6.36 2.05-8.31a22 22 0 0 1 5.11-6.15 18.48 18.48 0 0 1 2.92-2.17c.91-.57 2-1.28 4.12-2.85a58.71 58.71 0 0 0 5.95-5 28.31 28.31 0 0 0 2.43-2.61 5.26 5.26 0 0 1 1.67-1.47 8.26 8.26 0 0 1 4.25-1.07 7.13 7.13 0 0 0 3.75-.93 4.83 4.83 0 0 0 1.76-1.67 9 9 0 0 1 2.18-2.29c2.34-1.76 4.53-2.3 8.2-3.09a44.19 44.19 0 0 1 9.11-1 56.06 56.06 0 0 1 22.2 5c6.46 2.84 10.5 5.86 16.09 10.05a98.13 98.13 0 0 1 17.09 16.09c4.66 5.63 6.24 8.91 7.09 11.14a31.36 31.36 0 0 1 2 12.2c-.3 5.7-2.3 9.68-5.06 15.2a37.82 37.82 0 0 1-2.79 4.76c-1 1.52-2.5 3.8-5.23 8.28-1.81 3-2.95 4.93-3.88 6.51a72.35 72.35 0 0 1-4.13 6.62c-1.1 1.55-1.54 2.09-2.28 3s-1.95 2.38-4.72 6l-1.54 2c-2.79 3.7-3.63 4.82-5.59 6.09a14.52 14.52 0 0 1-7.55 2.72ZM381.87 225a15.87 15.87 0 0 1 3.63 8.67 10.57 10.57 0 0 1-.05 1.88 7 7 0 0 0 0 2.08c.12.78.39 2.6 3.92 7.8 2 2.88 3 4.44 3.81 4.83 2.35 1.15 5.72.46 9.49-2 1.83-1.19 2.58-2.18 5.35-5.86l1.54-2c2.78-3.66 4-5.1 4.75-6s1.16-1.41 2.24-2.93a74.69 74.69 0 0 0 4.09-6.45c.93-1.58 2.08-3.55 3.89-6.52 2.73-4.49 4.24-6.79 5.24-8.3a36.62 36.62 0 0 0 2.74-4.67c2.7-5.41 4.66-9.31 4.95-14.8a30.17 30.17 0 0 0-2-11.8c-.82-2.15-2.35-5.34-6.92-10.86a97.12 97.12 0 0 0-16.91-15.91c-5.55-4.16-9.55-7.15-15.9-10a55.16 55.16 0 0 0-21.8-4.95 43 43 0 0 0-8.9 1c-3.53.77-5.64 1.28-7.8 2.91a8.28 8.28 0 0 0-2 2.07 5.67 5.67 0 0 1-2.08 2 8.07 8.07 0 0 1-4.21 1.06 7.25 7.25 0 0 0-3.79.94 4.4 4.4 0 0 0-1.4 1.24 28.3 28.3 0 0 1-2.51 2.69 60.15 60.15 0 0 1-6 5c-2.12 1.6-3.27 2.32-4.19 2.9a16.59 16.59 0 0 0-2.78 2.07 20.92 20.92 0 0 0-4.89 5.86c-1.05 2-2.47 4.61-1.95 7.68a4.08 4.08 0 0 0 .38 1.05c.28.65.75 1.77 1.59 3.85l1.17 2.91 2.81 7.05a4.37 4.37 0 0 1 .38 2.39v.33a5.79 5.79 0 0 1-.07.6 2 2 0 0 1 0 .27 15 15 0 0 1-.42 1.94 3.56 3.56 0 0 1-.13.45c-.12.45-.3 1-.49 1.51l-.26.69-.09.22c-.13.33-.26.66-.41 1l.08-.12c.16-.23.32-.47.46-.7s.15-.22.22-.33c.22-.33.41-.63.6-.94.08-.12.14-.21.19-.3l.64-1.06.43-.74.38-.67c.36-.64.7-1.28 1-1.92l.42-.83c.72-1.44 1.36-2.84 1.9-4.17.19-.44.36-.87.52-1.29l.05-.11c.14-.38.29-.76.41-1.14.32-.87.58-1.71.79-2.49.17-.61.32-1.2.47-1.8a51.58 51.58 0 0 1 1.55-5.23 53.22 53.22 0 0 1 13.12-20.19l1-1-.19 1.43c-1.5 11.52 7.58 28.23 14.3 33a86.07 86.07 0 0 1 13.09 12.08l.09.15c1.93 5.16 2.86 5.23 2.9 5.23a.18.18 0 0 0 .08-.08c-1.15-3-.88-5.9.74-7.71a5 5 0 0 1 5.22-1.47c1.61.43 5.52 2.29 7.08 10.11 2.72 13.31-8.43 17.51-11.56 18.4Z"/><path fill="#020202" d="M351.51 183.81a8.42 8.42 0 0 0-3.69-5.88c-3.34-2-7.64-.75-7.68-.73l-.29-1c.2-.06 4.77-1.4 8.49.84a9.31 9.31 0 0 1 4.15 6.54ZM336.09 240.21l-.19-1c4.86-1 6.68-2.65 7.34-3.88a3.17 3.17 0 0 0 .33-2.34l-5.89-4.91.64-.77 6.09 5.08v.12a4 4 0 0 1-.34 3.3c-1.07 2.08-3.77 3.55-7.98 4.4ZM368 125.13a2.49 2.49 0 0 1-2.49-2.5v-8a2.5 2.5 0 0 1 2.39-2.5l19.17-.83a2.5 2.5 0 0 1 2.59 2.29l.67 8a2.49 2.49 0 0 1-.61 1.86 2.53 2.53 0 0 1-1.78.84l-19.83.83Zm19.18-12.83h-.07l-19.17.83a1.5 1.5 0 0 0-1.43 1.5v8a1.5 1.5 0 0 0 1.56 1.5l19.83-.83a1.48 1.48 0 0 0 1.07-.5 1.53 1.53 0 0 0 .37-1.12l-.67-8a1.5 1.5 0 0 0-1.5-1.38Z"/><path fill="#f38704" d="m385.84 111.85-17.93.79a1.86 1.86 0 0 0-.34 0c.22-2.24.29-11.23-10.07-22.46s-19.84-28.9-5.35-41.93a30 30 0 0 1 18.73-7.41c10-.47 25.39 1.74 33.12 17.84 0 0 7 10-6 25-12.65 14.64-13.94 17.87-12.16 28.17Z"/><path fill="#020202" d="m367 113.29.06-.66c.23-2.4.21-11.07-9.94-22.08-5-5.44-13.38-16.26-12.85-27.6.26-5.72 2.8-10.78 7.53-15a30.57 30.57 0 0 1 19-7.53c9.09-.43 25.55 1.35 33.6 18.12 0 0 7 10.42-6.07 25.54-12.47 14.39-13.82 17.49-12.05 27.72l.1.56-18.5.82a1.06 1.06 0 0 0-.27 0Zm6.3-72c-.82 0-1.62 0-2.41.06a29.54 29.54 0 0 0-18.42 7.28c-4.53 4.07-7 8.89-7.2 14.33-.51 11 7.67 21.56 12.58 26.89 9.73 10.54 10.4 19.11 10.25 22.25l17.14-.76c-1.67-10.1 0-13.7 12.37-28 12.56-14.5 6-24.29 6-24.39-6.93-14.32-19.84-17.63-30.3-17.63ZM382 129.72h-8a4 4 0 0 1-4-4v-1.66l16-.67v2.33a4 4 0 0 1-4 4ZM371 125v.7a3 3 0 0 0 3 3h8a3 3 0 0 0 3-3v-1.28Z"/><path fill="#020202" d="M378.5 133.72a3.5 3.5 0 0 1-3.5-3.5v-1.5h7v1.5a3.5 3.5 0 0 1-3.5 3.5Zm-2.5-4v.5a2.5 2.5 0 1 0 5 0v-.5ZM348.03 118.007l4-9.002.913.406-4 9.002zM338.578 108.515l5.001-9.999.894.447-5 10zM327.737 92.298l8-4.994.529.848-7.999 4.995zM322.873 75.25l8.004-1.998.242.97-8.004 1.999zM323.905 61.203l.196-.98 10.002 2-.196.98zM329.777 48.16l.406-.914 9.002 4-.406.914zM337.784 31.45l.75-.66 7.016 7.972-.75.66zM352.584 18.998l.858-.515 5.998 10-.858.514zM367.543 13.915l.923-.385 5 12-.923.385zM383.502 11.777l.99-.141 2 13.998-.99.141zM393.548 27.571l4.002-12.998.955.294-4 12.999zM402.55 29.443l6-9.998.858.515-6 9.997zM409.654 38.4l7.994-9.003.748.664-7.994 9.004zM412.692 49.352l11.004-8.99.633.774-11.004 8.99zM420.737 56.307l7.999-4.994.53.848-8 4.994zM420.875 73.269l10.997-3.005.264.965-10.997 3.004zM414 85.22h11v1h-11zM409.878 97.19l.18-.983 10.999 1.999-.179.984zM401.706 105.113l.6-.8 8 6-.6.8zM395.639 111.065l.707-.707 6.003 6.003-.707.707zM375 98.4a14.2 14.2 0 0 1-1-7.25 9.51 9.51 0 0 1 .91-3c-3.68-1.44-7.65-4.53-8.4-8.31a6.65 6.65 0 0 1 .65-3.68 20.31 20.31 0 0 1-2.17.09c-1 0-9.82-.32-11.47-5.35-.89-2.72.72-5.56 2.32-7.56a22.9 22.9 0 0 1-2.38-6c-.37-1.57-.84-4.31.27-5s2.66.84 5.58 3.79c.77.77 1.62 1.63 2.48 2.43a14 14 0 0 1 5.85-1.56v-.25c0-2.07-.08-4 1.18-4.52 1-.37 2 .24 4.08 2.58l.45-1.88c.58-2.55 1-4.39 2.54-4.72 1-.22 2.35.35 3.72 1.62a16.37 16.37 0 0 1 4.06 6.34 16.36 16.36 0 0 1 7 .52c2.44.77 4.14 2.12 4.81 3.82.81 2 .22 5-1.54 7.59S390 72.18 388 72.22c-1.48 0-2.48-.67-5.16-3.8a51.92 51.92 0 0 1 1.64 7.22c.82 5.36 1.59 10.36-1.18 12.47-1.62 1.24-4.37 1.36-7.45.35a8.84 8.84 0 0 0-.86 2.82A13.26 13.26 0 0 0 376 98Zm1.31-10.83c2.66.83 5 .74 6.35-.25 2.3-1.75 1.58-6.5.81-11.53a51.76 51.76 0 0 0-1.58-7 16.34 16.34 0 0 1-1.25 1.39 17 17 0 0 1 .33 2c.4 4.1-.9 7.35-2 10.23a30.81 30.81 0 0 1-2.29 4.6c-.13.19-.24.37-.34.56Zm-8-11.58a6.87 6.87 0 0 0-.8 3.63c.69 3.43 4.44 6.29 7.89 7.61.13-.24.28-.48.43-.74A29.5 29.5 0 0 0 378 82c1.16-2.9 2.35-5.91 2-9.77a13.11 13.11 0 0 0-.19-1.3A23.35 23.35 0 0 1 368.29 76Zm-11.9-11.78c-1.39 1.78-2.66 4.16-1.94 6.35 1.46 4.44 10.17 4.65 10.54 4.66a21 21 0 0 0 2.59-.14c.85-1.89 2.17-4.33 4-7.6 1.38-2.53 2.45-4.5 3.41-6a10.38 10.38 0 0 0-2.52-2.23 17.7 17.7 0 0 1-4.11 5.82c-1.35 1.26-3.62 3.38-6.39 3.13-2.2-.2-4.09-1.78-5.58-3.99Zm19.21-1.89c-.88 1.42-1.9 3.28-3.18 5.64-1.54 2.81-2.79 5.1-3.66 7a21.83 21.83 0 0 0 10.79-5 18.3 18.3 0 0 0-2.49-5.38l-.08-.18c-.43-.7-.88-1.4-1.38-2.08ZM383 67.1c2.79 3.32 3.73 4.17 4.95 4.12 1.63 0 3.63-1.46 5.09-3.65 1.59-2.37 2.14-4.92 1.45-6.67-.55-1.41-2-2.56-4.18-3.24a15.36 15.36 0 0 0-6.36-.49 13.66 13.66 0 0 1 .5 5.61A11.87 11.87 0 0 1 383 67.1Zm-6.84-5.67c.6.78 1.13 1.61 1.66 2.43l.06.08a19.75 19.75 0 0 1 2.46 5.12 13.49 13.49 0 0 0 1.17-1.45c-.14-.43-.28-.85-.43-1.27-.76-.93-1.63-2-2.62-3.22l-.85-1.12-1-1.21c-.12.21-.27.42-.41.64Zm-19.13 2c1.35 2.1 3.06 3.65 5 3.82 2.34.2 4.31-1.65 5.62-2.87a16.82 16.82 0 0 0 3.9-5.56l-.25-.11a8.91 8.91 0 0 0-2.66-.64c0 1.82-.21 3.48-1.42 4.12-1.48.78-3.49-.52-5.62-2.44a15.83 15.83 0 0 0-3.27 2.36c-.33.3-.79.75-1.26 1.29ZM382 65.84l.36.43a10.88 10.88 0 0 0 1.14-3.62 12.67 12.67 0 0 0-.5-5.33 13.6 13.6 0 0 0-4.11 1.43 55.91 55.91 0 0 1 3.11 7.09ZM377.27 60c.35.44.73.89 1.11 1.37l.89 1.09.67.83c-.57-1.36-1.2-2.7-1.89-4a5.9 5.9 0 0 0-.78.71Zm-22.94-6.9h-.07c-.24.16-.42 1.62.26 4.26a21.1 21.1 0 0 0 2 5.1c.41-.46.8-.85 1.11-1.14a16.07 16.07 0 0 1 3.2-2.36c-.75-.7-1.5-1.47-2.25-2.22-1.34-1.34-3.58-3.61-4.25-3.61Zm8.25 6.1c1.68 1.47 3.27 2.52 4.18 2 .75-.39.88-1.78.89-3.26a13.06 13.06 0 0 0-5.07 1.29Zm10.26-.91a10.66 10.66 0 0 1 2.71 2.3c.14-.21.29-.41.43-.59-1-1.19-1.85-2.25-2.63-3.17-.15.51-.35 1-.51 1.49Zm.85-2.59c.82 1 1.79 2.11 2.94 3.52a6.56 6.56 0 0 1 .94-.85c-.62-1.15-1.29-2.29-2-3.42l.85-.53c.71 1.13 1.38 2.27 2 3.42a14.5 14.5 0 0 1 4.25-1.52 15.22 15.22 0 0 0-3.73-5.76c-1.1-1-2.16-1.53-2.84-1.39-.91.2-1.29 1.87-1.78 4-.18.83-.38 1.66-.63 2.56Zm-5.05 1.3a9.89 9.89 0 0 1 3.05.71l.25.11c.25-.64.46-1.27.64-1.89-1.73-2-2.87-3-3.4-2.79s-.57 2.09-.54 3.57ZM375.5 104.22a2 2 0 1 1 2-2 2 2 0 0 1-2 2Zm0-3a1 1 0 1 0 1 1 1 1 0 0 0-1-1Z"/><path d="m107.46 95-.18-2.32c-.54-4.84 1.07-10.12 5.55-15.49 4-4.74 6.26-8.23 6.26-12.26 0-4.56-2.86-7.6-8.5-7.69a15.92 15.92 0 0 0-9 2.77L99.4 54.4c2.95-2.14 8.06-3.58 12.8-3.58 10.29 0 14.94 6.36 14.94 13.16 0 6.09-3.4 10.47-7.69 15.57-3.94 4.66-5.37 8.59-5.1 13.16l.09 2.32Zm-2 12.53a5.28 5.28 0 0 1 5.37-5.63c3.13 0 5.28 2.32 5.28 5.63a5.33 5.33 0 1 1-10.65 0Z"/><path d="M110.77 113.61a5.72 5.72 0 0 1-5.78-6 5.81 5.81 0 0 1 5.87-6.13c3.4 0 5.78 2.52 5.78 6.13a5.71 5.71 0 0 1-5.87 6Zm.09-11.18a5.1 5.1 0 0 0-.09 10.18 4.7 4.7 0 0 0 4.87-5c0-3.12-1.92-5.18-4.78-5.18Zm4.1-6.9h-8l-.21-2.78c-.59-5.29 1.31-10.63 5.66-15.85 3.9-4.58 6.15-8 6.15-11.94 0-4.49-2.92-7.11-8-7.19a15.36 15.36 0 0 0-8.73 2.67l-.53.4-2.5-6.61.31-.23c3-2.2 8.28-3.68 13.09-3.68 11.4 0 15.44 7.36 15.44 13.66 0 6.14-3.23 10.46-7.81 15.89-3.76 4.45-5.25 8.28-5 12.81Zm-7-1h6l-.07-1.8c-.29-4.8 1.28-8.84 5.22-13.5 4.43-5.27 7.57-9.45 7.57-15.25s-3.78-12.66-14.44-12.66c-4.45 0-9.28 1.31-12.19 3.27l1.78 4.67a16.75 16.75 0 0 1 8.8-2.49c5.64.09 9 3.15 9 8.19 0 4.24-2.34 7.83-6.38 12.59-4.17 5-6 10.08-5.44 15.1ZM342 190.36c-1.69-1-4.15.23-5.5 2.64s-1.09 5.13.6 6.08 4.15-.24 5.5-2.65 1.03-5.13-.6-6.07Zm-2.05 7.24a.4.4 0 0 1-.64 0 .61.61 0 0 1 .17-.74.4.4 0 0 1 .64 0 .6.6 0 0 1-.22.74Zm.51-4.08c-.4.71-1.12 1.06-1.62.78a1.31 1.31 0 0 1-.18-1.79c.4-.71 1.13-1.06 1.62-.78a1.31 1.31 0 0 1 .13 1.79Z"/><path fill="#f38704" d="M388 281.74c.32.36 6.21 6.93 14 5l11.69-23.38A153 153 0 0 0 396 251.72c-9 26-30 49-30 49a164.58 164.58 0 0 0 .06-24.83c-2.47 4.17-6.63 9.71-11.56 10.33 0 0 10 21 11 32a24 24 0 0 1 1.42-3.17A34.16 34.16 0 0 1 395 296.72l-7-15"/><path fill="#020202" d="M365.22 318.64c-.6-.07-.22-.38-.22-.38-1-10.78-10.85-31.62-10.95-31.83l-.3-.62.68-.09c4.66-.59 8.66-5.81 11.2-10.09l.8-1.35.12 1.56a162.9 162.9 0 0 1 .05 23.44c4.22-4.88 21.16-25.3 28.92-47.73l.2-.55.51.27A156.9 156.9 0 0 1 414 262.94l.33.25-12 24-.22.05c-5.52 1.39-10.1-1.33-12.57-3.33l6.2 13.28-.71.06c-16.59 1.44-24.46 11.94-27.68 18.07a24.31 24.31 0 0 0-1.39 3.09s-.15.29-.74.23Zm-10-32c1.57 3.35 8.89 19.41 10.53 29.68.19-.43.43-.92.71-1.47a34.9 34.9 0 0 1 27.77-18.52l-6.73-14.35v-.22h.5l.37-.33.06.07c.8.88 6.18 6.45 13.22 4.82l11.4-22.79a158.41 158.41 0 0 0-16.78-11.05c-9 25.57-29.69 48.38-29.9 48.61l-1 1.07.1-1.44a169.42 169.42 0 0 0 .17-23.22c-2.5 3.92-6.13 8.19-10.41 9.1Z"/></g></svg>