<svg xmlns="http://www.w3.org/2000/svg" fill="rgb(255, 255, 255)" data-name="Layer 1" viewBox="0 0 517 516"><path d="M498.31 208.52c-5.72.13-11.43.41-17.15.58-8.17.25-16.35.39-24.51 1-5.43.4-10.89.63-16.33.94s-10.88.79-16.31 1.29c-9.74.91-19.48 1.81-29.18 3.1-14 1.84-27.7 4.69-40.78 10.11a23 23 0 0 0-7.75 4.82 6.54 6.54 0 0 0-1.67 7 35.7 35.7 0 0 0 3.64 7.32c4.09 7.16 2.33 12.49-5.32 15.83a58.64 58.64 0 0 1-15.63 4C316.18 266 305 267 293.77 267.83c-15.82 1.21-31.65.83-47.48 1.22-17.11.42-34.21.35-51.31.24-12.37-.08-24.75-.33-37.11-.84a144.77 144.77 0 0 0-23.47 1 24 24 0 0 0-6.94 1.84c-3.5 1.56-4.3 3.7-2.72 7.18 1.83 4 1 6.47-3.06 8.38a30.23 30.23 0 0 1-6.65 2.09 199.53 199.53 0 0 1-23.34 3.18c-8.14.78-16.27 1.8-24.42 2.54-11.33 1-22.62 2.45-33.94 3.54q-12.52 1.2-25 2.5a7.75 7.75 0 0 1-4.87-.61H3.1l-.21.28c-.33 1.28.1 1.91 1.48 1.79a9.22 9.22 0 0 0 2-.11l14.31-1.41c4.9-.48 9.8-.94 14.7-1.45 4.24-.44 8.47-.92 12.71-1.38 3.24-.35 6.48-.71 9.72-1s6.5-.57 9.75-.91c5.42-.58 10.84-1.23 16.27-1.81 6.62-.7 13.24-1.33 19.86-2.07a107.85 107.85 0 0 0 13.94-2.45 23.62 23.62 0 0 0 4.71-1.62 9.62 9.62 0 0 0 3.71-2.95 5.12 5.12 0 0 0 .52-5.64c-.35-.72-.77-1.4-1.09-2.13-.85-1.89-.48-3.1 1.29-4.24a13.52 13.52 0 0 1 3.1-1.34 43.94 43.94 0 0 1 9-1.59 140.48 140.48 0 0 1 15.76-.46q12.69.24 25.37.54c9 .22 18.11.5 27.17.45 8.79 0 17.58-.07 26.37-.11h1.6c1.21 0 1.22 0 1.41 1.14l1 5.71q1.5 9 3 17.91t3 17.91q.86 5.12 1.73 10.23a4.24 4.24 0 0 1-.26 2.33c-.58 1.42-1 2.88-1.52 4.33a127.17 127.17 0 0 0-4.71 18.34c-.82 4.79-1.43 9.61-2 14.43-.62 5.23-1 10.47-1.42 15.71-.37 4.85-.62 9.7-1 14.55-.51 6.84-.78 13.7-1 20.55-.15 4.33-.21 8.65-.34 13-.19 6.12-.41 12.25-.62 18.37 0 .73-.09 1.46-.13 2.19-.2 3.52-.43 7.05-.58 10.57a32 32 0 0 0 .43 7c.55 3.1 1.64 5.9 4.42 7.72a.91.91 0 0 1 .48.8 13.23 13.23 0 0 0 1.31 5c.35.76.32.77-.33 1.33a37.32 37.32 0 0 1-8.52 5.14 35.63 35.63 0 0 1-20 3.34 14.83 14.83 0 0 0-5 .23 6.76 6.76 0 0 0-3.14 1.62c-3.34 3-3.16 8.71-.9 11.73a12.64 12.64 0 0 0 8.33 5 77.72 77.72 0 0 0 12.93 1c6 0 12-.21 18-.48 5.13-.23 10.22-.77 15.3-1.41a35.51 35.51 0 0 0 4.89-1 6.31 6.31 0 0 0 4.55-4.09 18.78 18.78 0 0 0 1.07-8.63 53.29 53.29 0 0 0-1.69-7.38 27.92 27.92 0 0 0-2.1-5.38c-.19-.39-.43-.81-.06-1.29a9.1 9.1 0 0 0 1.56-5.07c.47-4.84.84-9.69 1.27-14.53.29-3.18.61-6.36.94-9.54.45-4.3.94-8.6 1.39-12.9s.82-8.89 1.38-13.31c1-8 1.45-16 1.82-24.09.2-4.53.36-9.05.54-13.58 0-.53 0-1.06.09-1.59.09-.95.15-1.06 1.07-1a65 65 0 0 0 7.77-.52q7.26-.71 14.54-1c5.79-.26 11.57-.56 17.34-1.11 4.57-.43 9.15-.86 13.72-1.24 7-.59 14.08-.94 21.11-1.59 6-.55 12-1.32 18-2.08a14.29 14.29 0 0 0 3.84-1 3.94 3.94 0 0 0 2.37-2.52c.45-1.36.64-1.43 2-1a10 10 0 0 1 1.68.63c5.21 2.69 9.45 6.38 12.11 11.74a57.11 57.11 0 0 1 4.1 11 20.61 20.61 0 0 0 1.93 5 6.12 6.12 0 0 0 6 3.27c2.64-.11 5.65-1.32 6.59-5.07a35.86 35.86 0 0 0 .94-5.7 40.15 40.15 0 0 0 .05-8 69.31 69.31 0 0 0-2.33-11.93c-1.2-4.08-2.35-8.18-3.57-12.26a32.37 32.37 0 0 0-3.52-8.01 11.55 11.55 0 0 0-7.65-5.35 42.06 42.06 0 0 0-9.31-1 14.39 14.39 0 0 0-7.5 2.39 10.25 10.25 0 0 0-3.57 4c-.18.34-.22.79-.66.89-.67-.2-1.29-.43-1.94-.58a38.19 38.19 0 0 0-5.74-.64c-7-.49-14.12-.38-21.17-.68-9.51-.41-19-.64-28.55-.89a80.2 80.2 0 0 1-9.93-.93 28.75 28.75 0 0 1-4.82-1.27 5 5 0 0 1-3.54-4.39 20 20 0 0 1-.21-3.19c.1-2.33.17-4.65.27-7 .12-2.59-.25-1.82 1.32-4 3.2-4.51 6.26-9.11 9.28-13.73A121.9 121.9 0 0 0 311.5 299a47.39 47.39 0 0 0 4.77-17.2c.26-4.69.19-9.32-1.36-13.82-.07-.22-.21-.5.1-.75.15 0 .33-.08.53-.11 4-.51 8.06-1 12.08-1.53a82.39 82.39 0 0 0 11.31-2.39 31.38 31.38 0 0 0 6.28-2.53 14.39 14.39 0 0 0 5-4.45 8.58 8.58 0 0 0 1-8.71c-.39-.91-.89-1.78-1.37-2.66-.94-1.68-1.92-3.34-2.84-5a16.21 16.21 0 0 1-1.41-3.51 5.06 5.06 0 0 1 1.28-5 12.59 12.59 0 0 1 3.31-2.54 53.73 53.73 0 0 1 7.77-3.61 160.84 160.84 0 0 1 29.72-7.53c3.48-.56 7-1 10.48-1.47 4.09-.51 8.2-.93 12.3-1.35 3.18-.33 6.36-.62 9.54-.92 3.65-.34 7.29-.73 10.94-1 4.78-.37 9.56-.66 14.35-1 8.5-.56 17-1.06 25.53-1.35 11.71-.39 23.43-.61 35.13-1.32 2.46-.14 4.92-.31 7.37-.48a1.46 1.46 0 0 0 .92-.33v-1.6a5.46 5.46 0 0 1-3.2.95c-4.22.34-8.48.65-12.72.73ZM387.53 347.36a7.49 7.49 0 0 1 1.76.33 10.57 10.57 0 0 1 5.57 4.3 25.54 25.54 0 0 1 3 6.29c1.94 6.63 4.21 13.17 5.46 20a46.36 46.36 0 0 1 .26 15.87c-.2.91-.42 1.81-.69 2.7a4 4 0 0 1-2.35 2.55 6.23 6.23 0 0 1-3.71.4 3.52 3.52 0 0 1-2.47-1.55c-.39-.61-.74-1.25-1.1-1.89a1.34 1.34 0 0 1 .27-1.91 10.76 10.76 0 0 0 2.92-5.56 32.38 32.38 0 0 0 .19-13.08 62.82 62.82 0 0 0-1.77-7.77c-.67-2.29-1.24-4.62-1.87-6.93a55 55 0 0 0-5.17-12.28 10.65 10.65 0 0 1-.57-1.05.3.3 0 0 1 .27-.42Zm-17.35 4.21a9.48 9.48 0 0 1 4.1-3.68 11.78 11.78 0 0 1 5.78-1.26c1.12.1 2.26.08 3.39.11a2.21 2.21 0 0 1 2 1.33 67.57 67.57 0 0 1 6.55 16.26c.52 2.2 1.19 4.37 1.79 6.55a66.18 66.18 0 0 1 1.74 11 12.44 12.44 0 0 1-.22 3 40.66 40.66 0 0 1-.92 4.9 8.65 8.65 0 0 1-2.11 3.49c-.3-1-.51-1.64-.68-2.28a48.34 48.34 0 0 0-4.12-10.15 25.53 25.53 0 0 0-9.89-10.17l-1.88-1.13c-.05 0-.07-.11-.18-.29a28.16 28.16 0 0 0 3.72-1.64 7.24 7.24 0 0 0 3.06-2.77c1.46-2.66 1.52-5.72-1-8.23a14.63 14.63 0 0 0-9.45-4.21h-1.2c-.4 0-.77-.4-.48-.83Zm1.24 2.48a13.44 13.44 0 0 1 7.68 3 8.32 8.32 0 0 1 1 1 4.82 4.82 0 0 1-1.1 7.54 19.32 19.32 0 0 1-7.5 2.41.49.49 0 0 1-.64-.53V360.28c0-2.05.24-4.12-.91-5.91a1.55 1.55 0 0 1 1.47-.32ZM262.67 500.13a4.39 4.39 0 0 1-3.18 2.76c-1.22.3-2.45.6-3.7.78a193.12 193.12 0 0 1-19.66 1.72c-5.19.21-10.37.4-15.56.32a68.09 68.09 0 0 1-12.09-1.14 10.21 10.21 0 0 1-6.31-3.87 7.48 7.48 0 0 1-1.56-4.63c0-.63.22-.78.89-.62 2.19.55 4.37 1.14 6.57 1.64a145.57 145.57 0 0 0 17.12 2.73 139.8 139.8 0 0 0 17.72.7 70.73 70.73 0 0 0 11.89-1.24 22.73 22.73 0 0 0 8.82-3.34 12.08 12.08 0 0 1-.95 4.19Zm-1-16.43c.63 2.17 1.18 4.36 1.75 6.55.07.25.11.52.19.77.58 1.86-.29 3.06-1.78 4a18.84 18.84 0 0 1-5.95 2.25 65.74 65.74 0 0 1-9.48 1.33 113 113 0 0 1-16.56-.12 141.18 141.18 0 0 1-26.54-4.34c-.52-.14-1-.29-1.53-.46a.6.6 0 0 1-.32-1 5.25 5.25 0 0 1 3.51-2.71 14.58 14.58 0 0 1 5-.14 36.39 36.39 0 0 0 18.86-2.83 35.89 35.89 0 0 0 10.06-6 5.68 5.68 0 0 1 .6-.4c.49.16.68.53 1 .82a11.91 11.91 0 0 0 13.35 3 15.91 15.91 0 0 0 5.33-3.44l.69-.65c.55.11.64.53.79.88a20.57 20.57 0 0 1 1.01 2.49Zm-22.59-9.7c.22-.29.47-.05.7 0 2.06.75 4.08 1.59 6.21 2.15a62.39 62.39 0 0 0 11.75 2.1h.2c.19 0 .41 0 .5.23a.5.5 0 0 1-.14.53 13.12 13.12 0 0 1-6.37 3.91 8.88 8.88 0 0 1-2.77.39 10 10 0 0 1-8.8-5.27 13.22 13.22 0 0 1-1.29-3.33c-.07-.22-.18-.5.01-.71Zm23.74-17c-.12 1.46-.29 2.91-.41 4.37-.25 2.91-.47 5.83-.73 8.74-.12 1.33-.25 2.65-.45 4a11.65 11.65 0 0 1-.54 1.92.85.85 0 0 1-.91.62 25.85 25.85 0 0 1-3.18-.17 66.83 66.83 0 0 1-16.16-4.17c-.48-.21-1-.4-1.46-.63a8.42 8.42 0 0 1-4.79-6 27 27 0 0 1-.69-6.13c0-3 .21-6.1.33-9.14a1.62 1.62 0 0 1 1.4.22 68 68 0 0 0 15.43 3.83 14.76 14.76 0 0 0 2 .12 59.41 59.41 0 0 1 8.93.81c1.35.19 1.41.2 1.23 1.61Zm85.62-103.85c.08-.86.23-1 1.15-1 2.72.05 5.46 0 8.17.21a57 57 0 0 1 7.14.61 4.71 4.71 0 0 1 4.18 4.58c.1 1.12 0 2.26 0 3.39v2.39H369v5.6c-.17 2.2-.58 2.74-2.71 3.36a20.52 20.52 0 0 1-3.11.68c-3.16.42-6.32.8-9.49 1.18-.66.08-1.32.12-2 .17-.85 0-.85 0-1-.82-.75-5-1.51-10-2.23-15a23.52 23.52 0 0 1-.02-5.32Zm-53.68-4.59a33 33 0 0 0 7.36 1.72c5.29.67 10.62.75 15.94.92l27.33.81a1.89 1.89 0 0 1 1.38.3 7.43 7.43 0 0 1 0 .94 31 31 0 0 0 .29 7.75c.5 4 1.15 7.9 1.75 11.84.3 2 .23 1.73-1.47 1.93-4.36.51-8.75.71-13.13 1.05s-8.88.72-13.33 1.08c-5.56.46-11.13 1-16.7 1.36-4.91.34-9.84.49-14.75.81-4.11.27-8.23.55-12.32 1-1.85.23-3.72.29-5.57.42a.55.55 0 0 1-.64-.58 1.77 1.77 0 0 1 0-.4 82.51 82.51 0 0 1 2.1-16.71 49.3 49.3 0 0 1 5.26-12.45 156.26 156.26 0 0 1 9.35-13.9c.73-1 1.47-2 2.17-2.93.51.15.42.47.41.7 0 1.66-.1 3.32-.13 5a17.18 17.18 0 0 0 .26 4.17 6.75 6.75 0 0 0 4.44 5.2Zm18.9-61.13a51.18 51.18 0 0 1-3.46 10 105.66 105.66 0 0 1-7.2 13.32c-5.26 8.33-10.86 16.44-16.69 24.38-3.19 4.34-6.27 8.76-9.08 13.37a51.39 51.39 0 0 0-7 18.35c-.4 2.42-.66 4.88-.87 7.33-.23 2.85-.35 5.71-.49 8.57-.42 9-.75 18-1.27 26.93-.27 4.59-.85 9.15-1.32 13.72s-.94 9.13-1.42 13.7c-.31 3-.63 6-.94 8.93-.25 2.32-.48 4.64-.72 7-.07.65-.28.8-.93.67a50.3 50.3 0 0 0-8.73-.9 51.49 51.49 0 0 1-11.78-1.93 45.82 45.82 0 0 1-6.66-2.07c-1-.44-1-.43-1-1.41 0-1.6.07-3.2.17-4.79.39-6.52.51-13 .68-19.56.2-8.06.4-16.11.85-24.16.26-4.78.66-9.56 1-14.34.14-2.06.29-4.12.42-6.18.39-6.24 1-12.47 1.73-18.68a136.71 136.71 0 0 1 7.2-31.84c1.33-3.62 2.85-7.17 4.37-10.71 2.88-6.72 5.57-13.52 8.79-20.1.88-1.79 1.85-3.53 2.79-5.29a12.18 12.18 0 0 1 3.62-4.19 10 10 0 0 0 .94-.75.8.8 0 0 0 .15-1.07.89.89 0 0 0-1.22-.31 14.41 14.41 0 0 0-4.16 4 63.69 63.69 0 0 0-3.4 6.1c-2.45 4.95-4.54 10.05-6.71 15.13q-2 4.67-4 9.35a.5.5 0 0 1-.77 0l-3.26-19.29-3.39-20.07c-.55-3.21-1.08-6.43-1.61-9.64a1.31 1.31 0 0 1 .06-.38 3.48 3.48 0 0 1 1.57-.17c5.59 0 11.18-.07 16.78 0 7.92.06 15.84-.29 23.75-.61 3.53-.15 7.05-.3 10.57-.54 4.65-.32 9.3-.71 13.94-1.08 2.32-.18 4.64-.41 7-.6 1-.08 1 0 1.39 1a18.42 18.42 0 0 1 1 5.07 47.45 47.45 0 0 1-.69 13.77ZM512.7 173.12h-4c-23.37-.28-46.73-.51-70.09.58q-7.08.33-14.15.92c-4.9.4-9.8.91-14.7 1.43-5.16.55-10.32 1.07-15.47 1.76-5.93.79-11.85 1.71-17.76 2.62-8 1.23-16 2.66-23.92 4.46a130.69 130.69 0 0 0-17.78 5.2 66.39 66.39 0 0 0-8.82 4.17 17.53 17.53 0 0 0-5.74 4.88 6.86 6.86 0 0 0-.08 8.37 19.85 19.85 0 0 0 2.1 2.39c.89.91 1.86 1.72 2.75 2.62a28.91 28.91 0 0 1 2.42 2.65 3.72 3.72 0 0 1 0 5 7.27 7.27 0 0 1-2.55 2.19 17.09 17.09 0 0 1-3.32 1.34 52.11 52.11 0 0 1-8.22 1.59c-.39.05-.79.1-1.19.13s-.88.32-1.29 0a1.92 1.92 0 0 1-.09-1.2c.16-2.72.35-5.44.48-8.17.24-4.72.07-9.45-.15-14.17-.31-6.52-.35-13.05-.36-19.57a39.82 39.82 0 0 1 2.23-13.79 26.68 26.68 0 0 1 9.11-12.59c1.22-.93 2.46-1.83 3.76-2.63 2.6-1.6 5.22-3.19 7.9-4.66 4.72-2.6 9.38-5.3 13.92-8.2 3.08-2 6.13-4 9.19-6a98.91 98.91 0 0 0 19.72-17.37 148.89 148.89 0 0 0 19.11-26.51c1.12-2 2.41-4 3.65-6a57.94 57.94 0 0 0 3.31-5.91c1.16-2.45 1.83-5 .89-7.74a16.74 16.74 0 0 0 5.44-4.15c3.57-3.69 7.25-7.25 11-10.75 1.9-1.78 3.76-3.59 5.62-5.4a42.15 42.15 0 0 0 6.87-8.53 14.62 14.62 0 0 0 1.87-4.17c.51-2.2-.1-3.29-1.85-3.76-.06 0-.11-.08-.19-.15.45-.8.91-1.6 1.36-2.41a6 6 0 0 0 .81-2.85 2.33 2.33 0 0 0-2.4-2.58c-.34 0-.78.32-1-.19.24-.7.48-1.39.71-2.08a3.67 3.67 0 0 0 .08-2 2.15 2.15 0 0 0-2.27-1.83 6.09 6.09 0 0 0-2.3.61c-.84.09-.79-.35-.54-.9a5.58 5.58 0 0 0 0-1 1.7 1.7 0 0 0-2.13-1.53 3.41 3.41 0 0 0-1.48.58 22 22 0 0 0-1.92 1.41 46.26 46.26 0 0 0-8.09 8.8c-.26.37-.42.86-1 1-2.49-1.64-4.88-1.26-7.15.5a18.5 18.5 0 0 0-1.49 1.32A40.19 40.19 0 0 0 395 42.66a33.41 33.41 0 0 0-3.54 15 2.58 2.58 0 0 1-.11.59 6.49 6.49 0 0 1-.81-.19 2.16 2.16 0 0 0-2.38.55 4.72 4.72 0 0 0-.67.74c-1 1.31-2 2.63-3 4a4.27 4.27 0 0 0-1 2.14c-.05.5-.37.66-.83.61a5.14 5.14 0 0 0-3.7 1.18 12.69 12.69 0 0 0-2.66 2.4c-.95 1.2-1.9 2.4-2.78 3.65a54.46 54.46 0 0 1-5 6.19 107.1 107.1 0 0 1-20.89 17c-5.18 3.24-10.48 6.31-15.73 9.45q-10.27 6.15-20.9 11.68a47.93 47.93 0 0 1-13.25 4.35 10.31 10.31 0 0 1-2.65.24c-.06-.5.27-.56.45-.72 4.79-4.4 7.86-9.67 8.29-16.28a23.71 23.71 0 0 0-1.11-9.46A36.08 36.08 0 0 0 296 83.67c-.61-.7-1.21-1.41-1.79-2.14a62.33 62.33 0 0 1-4.47-5.88 42.92 42.92 0 0 1-4.77-10.72 44.41 44.41 0 0 0-3.55-8.87 11.11 11.11 0 0 0-2.56-3.29 23 23 0 0 0-9.27-4.89 31.65 31.65 0 0 0-7.32-.94 40.06 40.06 0 0 0-9.51 1 25.88 25.88 0 0 0-9.75 4.4 44.56 44.56 0 0 0-16.62 24 18.17 18.17 0 0 0 .31 11.2c.15.44.3.88.46 1.32a8.52 8.52 0 0 1 .15 5.68c-.14.44-.25.89-.41 1.33a25.9 25.9 0 0 0-1.31 5.83c-.62 5.42.54 10.31 4.26 14.44-.3.45-.62.11-.94 0a55.18 55.18 0 0 1-10.23-3.87 62 62 0 0 1-14.72-9.83c-3.45-3-6.79-6.19-10.13-9.33-7.86-7.39-15.48-15-23.15-22.6-3.7-3.64-7.49-7.19-11.47-10.53a17.6 17.6 0 0 0-5.87-3.31c-1.38-.45-2.77-.91-4.16-1.35a.64.64 0 0 1-.5-.74c.13-1.06.34-2.11.4-3.17a36.32 36.32 0 0 0-1.27-11.65 41.65 41.65 0 0 0-7.38-14.7 12.76 12.76 0 0 0-2.08-2.14 5.41 5.41 0 0 0-4.3-1.15 5.71 5.71 0 0 0-1.14.33c-.79.26-.79.26-1.2-.5l-.27-.54a45.94 45.94 0 0 0-6.69-9.88 24.3 24.3 0 0 0-1.83-1.83 3.18 3.18 0 0 0-1.57-.82 1.72 1.72 0 0 0-2.24 1.47 9.2 9.2 0 0 0 0 1.39 1.37 1.37 0 0 1 .26.49 1.48 1.48 0 0 1-.11.53 2.91 2.91 0 0 1-.51-.22c-.08-.06-.11-.21-.16-.32a14.34 14.34 0 0 0-1.69-1 2.33 2.33 0 0 0-3.47 1.93 10.87 10.87 0 0 0 .07 2.55 3.63 3.63 0 0 1 .28.51c.07.23.21.49 0 .72s-.48 0-.7 0a2 2 0 0 1-.49-.29c-2.28.47-2.91 1.31-2.74 3.56a9.14 9.14 0 0 0 .6 2.31c.24.68.52 1.34.74 1.89a.57.57 0 0 1-.5.46c-1.66.53-2 1-2.08 2.68a9.81 9.81 0 0 0 .67 3.51 40.46 40.46 0 0 0 6.37 11.45c2.6 3.37 5.26 6.7 7.83 10.09 2.46 3.23 4.85 6.51 7.27 9.77a12.5 12.5 0 0 0 3.7 3.58.71.71 0 0 1 .45.79 7.54 7.54 0 0 0 .93 4.61 49.1 49.1 0 0 0 6 9.67c5.47 6.79 11.13 13.42 17.12 19.77 8.55 9.07 17.64 17.57 27 25.8 7.3 6.42 14.65 12.78 21.94 19.21 5.24 4.63 10.58 9.14 16 13.59 2.31 1.91 4.51 3.95 6.82 5.85a2.39 2.39 0 0 1 .93 2.43 30.64 30.64 0 0 0-.1 6q.49 8.28.5 16.57a238.41 238.41 0 0 0 2.23 29.85 13.74 13.74 0 0 0 1.57 5.33c.16.27.48.48.3.94h-1.94c-8.12-.22-16.24-.48-24.36-.66-10.78-.25-21.57-.4-32.35-.65-10.59-.25-21.18-.35-31.76-.15a80.11 80.11 0 0 0-13.12 1.1 16.62 16.62 0 0 0-5.5 1.71 4.11 4.11 0 0 0-1.87 5.77c.22.49.49 1 .75 1.41s.62 1 .89 1.56a2.1 2.1 0 0 1-.25 2.42 5.68 5.68 0 0 1-1.48 1.33 15.78 15.78 0 0 1-2.85 1.42 40.64 40.64 0 0 1-7.11 1.94c-5.36 1-10.77 1.75-16.19 2.32-7.28.77-14.58 1.41-21.87 2-6.37.52-12.75.91-19.13 1.35l-6.77.48c-4.91.35-9.83.72-14.74 1s-9.7.62-14.55.92c-6.24.38-12.47 1-18.73 1.06a1.73 1.73 0 0 0-.2 1.8 2.39 2.39 0 0 0 .22.23c1.8 0 3.58-.19 5.37-.32 6.11-.43 12.22-.8 18.33-1.21l23.71-1.61q8.56-.58 17.13-1.2 9-.65 17.92-1.34c1.79-.13 3.59-.29 5.37-.48 4.37-.47 8.73-.94 13.09-1.47s8.58-1.11 12.81-2a32.62 32.62 0 0 0 7.59-2.43 9.91 9.91 0 0 0 3.36-2.45 3.83 3.83 0 0 0 .56-4.62c-.38-.71-.81-1.38-1.19-2.08-1.26-2.35-.79-3.7 1.73-4.66a20.53 20.53 0 0 1 3.27-.89 69.49 69.49 0 0 1 12.71-1.17c13-.16 26-.12 39 .26 5.85.17 11.71.23 17.57.37q16.38.39 32.75.82c5.19.13 10.38.3 15.57.37 10.19.13 20.37.41 30.56.29 7.32-.09 14.65-.1 22-.48a128 128 0 0 0 15.87-1.68 27.4 27.4 0 0 0 6.86-2 9.37 9.37 0 0 0 4.21-3.56 5.5 5.5 0 0 0-.1-6.38 19.63 19.63 0 0 0-2.78-3.12c-1.06-1-2.13-2-3.18-3a9.36 9.36 0 0 1-1.76-2.16 5 5 0 0 1 0-5.31 10.67 10.67 0 0 1 1.49-1.86 20.12 20.12 0 0 1 5.18-3.69 83.1 83.1 0 0 1 17.77-6.85c6.56-1.77 13.2-3.18 19.88-4.35 6-1 11.94-2 17.93-2.91 4-.62 8-1.16 12.05-1.68s8.06-1 12.1-1.43q4.86-.53 9.73-.94c5.5-.48 11-1.06 16.52-1.36 7-.39 14.1-.64 21.15-.8s13.85-.17 20.77-.17c12 0 24 .09 36 .14.73 0 1.46-.06 2.19-.09v-2a3 3 0 0 1-1.62.26ZM394 51.32a38.73 38.73 0 0 1 10.8-19.18 9.08 9.08 0 0 1 2.71-2A3.34 3.34 0 0 1 410 30a.93.93 0 0 1 .61 1.27 6.19 6.19 0 0 1-.7 1.19q-2.62 3.66-5.26 7.28a7.26 7.26 0 0 0-.75 1.17.66.66 0 0 0 .23.88.74.74 0 0 0 .92 0 5.13 5.13 0 0 0 .81-.87c1.42-1.85 2.85-3.68 4.23-5.56 1.57-2.15 3.11-4.32 4.64-6.49a44.5 44.5 0 0 1 7.73-8.31 5.53 5.53 0 0 1 2.14-1.35 1.22 1.22 0 0 1 0 1.19 17.25 17.25 0 0 1-1.9 3.51c-2.6 3.78-5.11 7.62-8.06 11.15a11.35 11.35 0 0 0-1.06 1.44.85.85 0 0 0 1.38 1 7.87 7.87 0 0 0 .66-.75c1.51-1.86 3-3.73 4.37-5.7a52.19 52.19 0 0 1 6.42-7.35 6.28 6.28 0 0 1 2.86-1.74.54.54 0 0 1 .71.49 3.72 3.72 0 0 1-.3 1.94 15.1 15.1 0 0 1-1.43 2.61 81.94 81.94 0 0 1-5.05 6.69c-1.92 2.29-3.77 4.65-5.66 7-.68.82-1.41 1.6-2.08 2.42a.73.73 0 0 0 .09 1.07.84.84 0 0 0 1.09.09 3.85 3.85 0 0 0 .74-.66c.59-.64 1.16-1.28 1.71-1.95 1.1-1.34 2.19-2.69 3.24-4.05a57.36 57.36 0 0 1 8.11-8.61 3.83 3.83 0 0 1 1.48-1c.29-.06.72.2.72.5a2 2 0 0 1-.05.78 11.92 11.92 0 0 1-.86 2 33.11 33.11 0 0 1-2.11 3.14c-3.2 4.17-6.42 8.33-10 12.21a2.55 2.55 0 0 0-.46.63.75.75 0 0 0 .17.91.76.76 0 0 0 .91.18 4.44 4.44 0 0 0 1.48-1.31c1.76-2.09 3.51-4.18 5.23-6.3a34.44 34.44 0 0 1 3.33-3.71 3.3 3.3 0 0 1 1.49-1c.54-.11 1 .19.91.72a8.24 8.24 0 0 1-1 2.81 33.53 33.53 0 0 1-5.44 7.61 135.46 135.46 0 0 1-5.36 5.36c-4.71 4.42-9.4 8.86-13.88 13.51-.51.52-1.05 1-1.59 1.51a9.47 9.47 0 0 1-2.34 1.51 1 1 0 0 1-1.26-.11c-.83-.77-1.75-1.45-2.54-2.26-2-2.06-3.92-4.17-5.88-6.25a1 1 0 0 1-.27-.7 33.37 33.37 0 0 1 .88-8.42ZM237 89.79c.4-2.7.77-5.4 1.16-8.1.08-.52.22-1 .33-1.54.52-.25.68.31 1 .36a1.71 1.71 0 0 0 1.16-.14 10.2 10.2 0 0 0 1-.64 44.47 44.47 0 0 1 8.72-5.2.57.57 0 0 1 .68 0c-.34.64-.71 1.27-1 1.92a1.16 1.16 0 0 0 .16 1.31 1.17 1.17 0 0 0 1.45.3 21.44 21.44 0 0 0 2.13-1.1 31.92 31.92 0 0 1 4-2.14 12.42 12.42 0 0 1 2.47-.77c1.5-.26 2 0 2.54 1.5a22.3 22.3 0 0 1 .85 3.89c.37 2.3.78 4.59 1.21 6.88a13.84 13.84 0 0 0 .53 1.91 9.93 9.93 0 0 0 4.56 5.6 7.45 7.45 0 0 0 .87.49c2.91 1.32 2.81 1.82 3.73-1.41a4 4 0 0 1 1.66-2.42 1.28 1.28 0 0 1 1.65 0 3.62 3.62 0 0 1 1.28 1.51 9.35 9.35 0 0 1 1 3.44 28.3 28.3 0 0 1-.19 6.17 1.2 1.2 0 0 1-1.13.11 3.08 3.08 0 0 0-3.54 1.1 3.37 3.37 0 0 0-.19 3.9 4.32 4.32 0 0 1 .42 2.65 16.26 16.26 0 0 0 1 4.06c.74 2 1.42 4 2.15 6a3.64 3.64 0 0 1 0 2.35 8.28 8.28 0 0 1-3.85 4.91 21.37 21.37 0 0 1-9.81 3.21 8.71 8.71 0 0 1-6.36-2.4 3.59 3.59 0 0 1-.64-.76 1.61 1.61 0 0 1 .67-2.51 10.9 10.9 0 0 1 1.69-.59 12.73 12.73 0 0 0 5.07-3.07 4.3 4.3 0 0 0 .57-.57.89.89 0 0 0 .09-.94.86.86 0 0 0-.81-.5 9.4 9.4 0 0 0-1.19.11l-4.33.74a32.88 32.88 0 0 1-11.91-.15 13.88 13.88 0 0 1-4.79-1.89 10.05 10.05 0 0 1-4.43-5.46 38.85 38.85 0 0 1-1.63-7.6c-.18-1.45-.31-2.91-.45-4.37a41.57 41.57 0 0 1 .45-10.15ZM135.15 63.9a11.47 11.47 0 0 1-2.68-2.66c-1.69-2.3-3.35-4.63-5.09-6.91-2.26-3-4.59-5.87-6.86-8.82-1.62-2.11-3.25-4.22-4.79-6.39a32.94 32.94 0 0 1-4.8-9.36 17.44 17.44 0 0 1-.49-2.14c-.09-.47-.07-1 .4-1.24s.88.17 1.22.47a6.59 6.59 0 0 1 1 1.19q1.23 1.82 2.38 3.68c1.45 2.38 2.87 4.79 4.34 7.17a9.27 9.27 0 0 0 1.24 1.55.81.81 0 0 0 1.1 0 .78.78 0 0 0 .18-1.08c-.17-.28-.34-.56-.52-.84-3-4.55-5.68-9.31-8.31-14.08a25.86 25.86 0 0 1-1.46-3.27 4.34 4.34 0 0 1-.33-2.34c.09-.54.62-.81 1-.47a15.23 15.23 0 0 1 1.32 1.32 57.82 57.82 0 0 1 6.74 9.61c1.14 2 2.34 4 3.54 6a9.4 9.4 0 0 0 1.21 1.59.85.85 0 0 0 1.11 0 .81.81 0 0 0 .24-1.06c-.27-.46-.61-.87-.88-1.33-3.09-5.35-6.51-10.51-9.24-16.07a30 30 0 0 1-1.21-2.95 8.33 8.33 0 0 1-.33-1.56 1.21 1.21 0 0 1 .38-1.27c.45-.3.88 0 1.28.25a6.15 6.15 0 0 1 1.74 1.63 52.3 52.3 0 0 1 5.31 8.18c1.12 2.19 2.27 4.36 3.56 6.46.24.39.46.81.73 1.19a.94.94 0 0 0 1.25.22.88.88 0 0 0 .23-1.23c-.23-.47-.5-.93-.78-1.39-2.43-4-4.37-8.21-6.42-12.38a19.44 19.44 0 0 1-1.33-3.55 4.59 4.59 0 0 1-.11-1.18.27.27 0 0 1 .42-.23 6.4 6.4 0 0 1 1.75 1.61A47.61 47.61 0 0 1 130 22.31c2.1 4.22 4.21 8.45 6.61 12.51.17.29.31.59.49.87.45.68.84.86 1.27.64s.54-.69.22-1.39c-.11-.24-.25-.47-.37-.7l-4.14-8c-.09-.18-.17-.36-.27-.53-.37-.61-.59-1.32-.1-1.86a1.82 1.82 0 0 1 1.88-.26 3.64 3.64 0 0 1 1.61.76 15.12 15.12 0 0 1 1.55 1.55 39.45 39.45 0 0 1 7.64 15.86 48.35 48.35 0 0 1 1 8.31 36 36 0 0 1-.71 6.12 1.14 1.14 0 0 1-.45.61c-3.08 2.42-6 5.09-9.4 7.06a1.35 1.35 0 0 1-1.68.04Zm173.73 161a.82.82 0 0 1-.83.9c-.72.07-1.45.15-2.18.2-4.26.26-8.52.4-12.78.5-8.65.21-17.31.35-26 .17l-27.36-.58h-1a.75.75 0 0 1-.63-.37 12.7 12.7 0 0 1-2.12-5.91c-.68-5.55-1.33-11.1-1.76-16.67-.27-3.65-.41-7.32-.46-11-.08-6-.14-12-.45-18a91.18 91.18 0 0 1 .26-11.57 10.59 10.59 0 0 1 1.93-5.38 5 5 0 0 0 .59-1 .89.89 0 0 0-.27-1.08.76.76 0 0 0-1.06.19 14.56 14.56 0 0 0-1.41 1.92 11 11 0 0 0-1.43 3.92c-.09.64-.21 1.28-.31 1.9-.36.07-.54-.15-.74-.31-2.49-2.11-4.95-4.26-7.47-6.33-6.33-5.2-12.48-10.6-18.62-16s-12.15-10.58-18.19-15.91c-9.1-8-17.94-16.3-26.27-25.12-6-6.39-11.74-13.08-17.25-19.93a45.81 45.81 0 0 1-6-9.89 5.16 5.16 0 0 1-.6-2.89 1.21 1.21 0 0 1 .71-1.11c3.05-1.29 5.47-3.49 8-5.58.46-.39.89-.8 1.35-1.19 1.67-1.38 1.68-1.41 3.72-.94a18.19 18.19 0 0 1 8.16 4c3.9 3.42 7.73 6.93 11.42 10.59 9.17 9.1 18.38 18.15 27.82 27a102.3 102.3 0 0 0 11 9.22 60.75 60.75 0 0 0 23 10.13 20 20 0 0 0 9.29 0 1.11 1.11 0 0 1 .94.14c3.62 2.3 7.69 2.8 11.86 2.87h3.39c.73 0 1.57-.66 2.1.38a13.29 13.29 0 0 0-1.65.68 3.36 3.36 0 0 0-1.3 4.8 6.33 6.33 0 0 0 1.9 2 10.86 10.86 0 0 0 8.49 2.05 25.72 25.72 0 0 0 8.25-2.87 11 11 0 0 0 5.08-5.43c.43-1.05.47-1 1.63-.83 2.55.43 5.12.8 7.66 1.3a26.41 26.41 0 0 0 12.05-.7 54.52 54.52 0 0 0 12-4.73c7.43-4 14.81-8.11 22-12.51 4.26-2.6 8.59-5.08 12.84-7.69a113.26 113.26 0 0 0 19.14-15 58.29 58.29 0 0 0 7.89-9.24c.74-1.09 1.6-2.12 2.42-3.16a10.9 10.9 0 0 1 2.87-2.46 3.32 3.32 0 0 1 1.48-.57c1.09-.1 1.6.19 1.91 1.25a23.49 23.49 0 0 0 2.23 5.11 11.78 11.78 0 0 0 2.72 3.16 2 2 0 0 0 .67.42.84.84 0 0 0 1.06-.31.72.72 0 0 0 0-.92c-.3-.35-.65-.67-1-1-2.41-2.31-3.53-5.28-4.27-8.42a2.65 2.65 0 0 1 .37-2.29c1.14-1.56 2.26-3.13 3.42-4.67.46-.6.79-.63 1.33-.16a28.57 28.57 0 0 1 3.36 3.42 47.16 47.16 0 0 0 6.13 6.27c2.63 2.22 2.94 3.58 1.72 6.85a41.36 41.36 0 0 1-3.63 6.91c-1.56 2.56-3.17 5.08-4.67 7.67a146.8 146.8 0 0 1-24.89 31.83 83.5 83.5 0 0 1-11 8.93 283.33 283.33 0 0 1-24.58 15.24c-2.68 1.46-5.31 3-7.9 4.66a48.14 48.14 0 0 0-4.55 3.24 27.88 27.88 0 0 0-8.93 12.51 40.91 40.91 0 0 0-2.28 10.09 118.15 118.15 0 0 0-.15 15.17c.13 5.45.34 10.91.53 16.37.18 5.27-.37 10.51-.7 15.75Z"/><path fill="rgb(122, 255, 51)" d="M514.25 174.86v32a5.46 5.46 0 0 1-3.2.95c-4.24.35-8.5.66-12.74.74-5.72.13-11.43.41-17.15.58-8.17.25-16.35.39-24.51 1-5.43.4-10.89.63-16.33.94s-10.88.79-16.31 1.29c-9.74.91-19.48 1.81-29.18 3.1-14 1.84-27.7 4.69-40.78 10.11a23 23 0 0 0-7.75 4.82 6.54 6.54 0 0 0-1.67 7 35.7 35.7 0 0 0 3.64 7.32c4.09 7.16 2.33 12.49-5.32 15.83a58.64 58.64 0 0 1-15.63 4C316.18 266 305 267 293.77 267.83c-15.82 1.21-31.65.83-47.48 1.22-17.11.42-34.21.35-51.31.24-12.37-.08-24.75-.33-37.11-.84a144.77 144.77 0 0 0-23.47 1 24 24 0 0 0-6.94 1.84c-3.5 1.56-4.3 3.7-2.72 7.18 1.83 4 1 6.47-3.06 8.38a30.23 30.23 0 0 1-6.65 2.09 199.53 199.53 0 0 1-23.34 3.18c-8.14.78-16.27 1.8-24.42 2.54-11.33 1-22.62 2.45-33.94 3.54q-12.52 1.2-25 2.5c-1.85.2-3.71.29-5.35-.9a4.1 4.1 0 0 1-.22-1.8v-41.65a4.66 4.66 0 0 1 .17-1.78c1.7-1.42 3.84-1 5.73-1.07 7.11-.43 14.2-.94 21.31-1.39q12.93-.83 25.87-1.82c6.23-.47 12.47-.81 18.7-1.33 14.92-1.23 29.89-2.09 44.55-5.42a20 20 0 0 0 6.12-2.37c3.18-2 3.66-3.72 1.93-7-1.86-3.5-1-5.46 2.73-6.61a49.46 49.46 0 0 1 13.83-1.74c11.25-.17 22.52-.3 33.76 0 6.92.21 13.85.07 20.76.35 10.57.42 21.15.48 31.72.82 13.9.44 27.8.66 41.71.79 8.38.08 16.76 0 25.13-.14a121.61 121.61 0 0 0 21.44-1.95 25.68 25.68 0 0 0 7-2.27c4.16-2.14 6-6.53 1.86-10.56-1.52-1.49-3-3-4.51-4.53-3.25-3.43-3.2-6.79.19-10.13 2.91-2.87 6.57-4.51 10.26-6.06 9.88-4.16 20.3-6.39 30.79-8.35q23.18-4.32 46.64-6.67c9.27-.92 18.54-1.73 27.85-2.2 24.42-1.25 48.85-.52 73.28-.73a3.65 3.65 0 0 1 2.67.67Z"/><path fill="rgb(255, 255, 255)" d="M263.42 251.41a13 13 0 0 1-1.51 6.06 9.85 9.85 0 0 1-3 3.46 6.54 6.54 0 0 1-8.13-.13 8.78 8.78 0 0 1-2.71-3.39 14.17 14.17 0 0 1 .55-13.38 9.17 9.17 0 0 1 2.69-2.89 6.61 6.61 0 0 1 7.82.13 9.72 9.72 0 0 1 2.88 3.51 14.19 14.19 0 0 1 1.41 6.63Z"/><path fill="rgb(255, 255, 255)" d="M210.46 251.79A24.43 24.43 0 0 1 212.6 241a21 21 0 0 1 1.82-3.32 11.73 11.73 0 0 1 4.47-3.89 5.58 5.58 0 0 1 2.3-.61 3.83 3.83 0 0 1 3.41 1.71 8.79 8.79 0 0 1 1.32 4.34.69.69 0 0 1-.59.71.77.77 0 0 1-.83-.4 2.4 2.4 0 0 1-.37-1.13 5.79 5.79 0 0 0-.77-2.25 2.2 2.2 0 0 0-2.73-1 8.35 8.35 0 0 0-4.44 3.23 17.29 17.29 0 0 0-2.74 5.52 27.16 27.16 0 0 0-.51 14.77 9.22 9.22 0 0 0 1.25 2.92 6.86 6.86 0 0 0 7.6 3.14c3.88-1 8-4.17 7.63-9.84a7.69 7.69 0 0 0-1.33-3.91c-.3-.44-.65-.85-.92-1.31a2 2 0 0 1 .42-2.7 5.61 5.61 0 0 1 1.34-.84 6.71 6.71 0 0 1 3.13-.53 3.44 3.44 0 0 1 3.68 2.73 15.1 15.1 0 0 1 .78 4.31c.07 1.53.11 3.06.14 4.59a10 10 0 0 0 .74 4.68.65.65 0 0 1 0 .2.9.9 0 0 1-.53 1 .83.83 0 0 1-.91-.22 4 4 0 0 1-1-2.54c-.09-1-.09-2-.09-3a37.58 37.58 0 0 0-.37-6.18 20.62 20.62 0 0 0-.52-2.33 1.85 1.85 0 0 0-1.74-1.42 4.9 4.9 0 0 0-3.23.76.49.49 0 0 0-.18.7c.25.39.54.76.8 1.14a10.57 10.57 0 0 1-1.63 13.23 12.38 12.38 0 0 1-6.48 3.31 8.61 8.61 0 0 1-7.65-2.56 10.7 10.7 0 0 1-2.49-4.27 22 22 0 0 1-.92-7.95ZM270.41 252.75a3.15 3.15 0 0 0-.3 1.54c-.25 2.51-.5 5-.76 7.54a3.49 3.49 0 0 1-.2 1 .65.65 0 0 1-.64.38.7.7 0 0 1-.64-.4 2.37 2.37 0 0 1-.13-1.37c.15-2.12.27-4.24.47-6.36a93.57 93.57 0 0 1 1.88-12 24.36 24.36 0 0 1 1.62-4.91 5.37 5.37 0 0 1 1.06-1.68 1.5 1.5 0 0 1 1.83-.25 5.51 5.51 0 0 1 1.59 1.49A56.41 56.41 0 0 1 281 245c.23.4.45.82.66 1.23s.56.47 1 .24c1.22-.67 2.45-1.33 3.69-2a4 4 0 0 1 1.11-.42.8.8 0 0 1 .81.47.67.67 0 0 1-.11.9 4.74 4.74 0 0 1-1 .66c-1.16.64-2.34 1.26-3.51 1.89a1.47 1.47 0 0 0-.79.79c1.53 3 2.93 6.12 4.69 9.09a7.45 7.45 0 0 1 .49.87.69.69 0 0 1-.17.73.82.82 0 0 1-.9.24 1.77 1.77 0 0 1-1-.92c-.52-.93-1.05-1.85-1.53-2.8-.94-1.83-1.85-3.68-2.78-5.52-.17-.35-.37-.69-.62-1.16-2.63 1.09-5.28 2-7.77 3.19a3.26 3.26 0 0 1-1.85.62c-1.1-1.25-.08-1.9.78-2.46a37.26 37.26 0 0 1 5.41-2.49c1.84-.8 2-1.07 1-2.76a48.74 48.74 0 0 0-4.48-6.5 9.47 9.47 0 0 0-1.54 3.62c-.66 2.78-1.17 5.58-1.59 8.4-.09.65.07 1.39-.59 1.84Z"/><path fill="rgb(255, 255, 255)" d="M295.66 261.91a2.08 2.08 0 0 1-2.26-1.26 10.62 10.62 0 0 1-.86-3.88 40.09 40.09 0 0 0-.4-4.37c-.17-1-.24-2-.45-3-.54-2.4-.76-4.86-1.14-7.29a8.7 8.7 0 0 0-.57-2.52 1.35 1.35 0 0 1-.1-.77c.05-.4.21-.78.69-.85a.82.82 0 0 1 1 .53 9.42 9.42 0 0 1 .47 1.73c.3 1.63.55 3.28.82 4.92.13.79.23 1.58.4 2.36a73.87 73.87 0 0 1 1.21 9.5 12 12 0 0 0 .2 1.58c.32 1.38.6 1.56 1.92 1.25.64-.16 1.28-.36 1.92-.55 1.72-.52 3.42-1.09 5.15-1.55s3.75-.92 5.63-1.37a11.6 11.6 0 0 1 1.18-.19c.73-.09 1.17.16 1.22.67s-.24.91-.95 1.08c-1 .23-1.95.41-2.93.61-2.87.6-5.63 1.58-8.44 2.4-1 .28-1.93.53-2.89.78-.36.12-.69.17-.82.19Z"/><path fill="rgb(122, 255, 51)" d="M270.41 252.75a43.82 43.82 0 0 1 1.11-7.65 26.71 26.71 0 0 1 1.33-5 6.51 6.51 0 0 1 1-1.94.93.93 0 0 1 .81.48 50.12 50.12 0 0 1 5.31 8.14c.33.63.23.88-.52 1.2-1.52.65-3.06 1.25-4.57 1.93-1 .46-2 1-3 1.53-.7.4-.69.53-.39 1.67Z"/><path fill="rgb(255, 255, 255)" d="M192.45 249.15a.7.7 0 0 1-.4.64 11.13 11.13 0 0 1-1.48.59L176 255.12l-4.54 1.47a5.79 5.79 0 0 1-1.15.26.66.66 0 0 1-.64-.39.72.72 0 0 1 0-.75 1.81 1.81 0 0 1 1.09-.81c.87-.33 1.75-.63 2.64-.91l16.91-5.29a3.69 3.69 0 0 1 1.35-.31.83.83 0 0 1 .79.76Z"/><path fill="rgb(255, 255, 255)" d="M175.11 234.34a2.87 2.87 0 0 1 .63.16 43.88 43.88 0 0 0 7.88 2.12c2.8.57 5.53 1.4 8.27 2.2.9.26 1.8.49 2.69.74a6.17 6.17 0 0 1 .95.3.77.77 0 0 1-.34 1.5 17 17 0 0 1-1.75-.36c-3.09-.79-6.17-1.61-9.26-2.38-1.68-.41-3.39-.68-5.06-1.12s-3-.95-4.55-1.46c-.66-.21-.85-.49-.8-1s.56-.79 1.34-.7ZM198.22 253.71a1.91 1.91 0 0 1-.19.45 2.41 2.41 0 0 1-.46.37l-14.67 10.58a4.75 4.75 0 0 1-1 .56.7.7 0 0 1-.73-.21.82.82 0 0 1-.14-.92 2.39 2.39 0 0 1 1-1c1.54-1.14 3.09-2.29 4.66-3.4q4.54-3.21 9.11-6.4a9.1 9.1 0 0 1 1.56-.86c.35-.17.9.27.86.83Z"/><path fill="rgb(255, 255, 255)" d="M337.06 225.23a.76.76 0 0 1-.31.7 10.87 10.87 0 0 1-1.33.87c-3.41 1.92-6.84 3.81-10.25 5.74a16.43 16.43 0 0 0-3 1.89 1.27 1.27 0 0 1-.53.27.87.87 0 0 1-1-.35.77.77 0 0 1 .17-1.07 9.2 9.2 0 0 1 1.31-.9q3.78-2.22 7.57-4.41c1.73-1 3.47-2 5.21-2.93a7.87 7.87 0 0 1 1.26-.57.87.87 0 0 1 .9.76ZM337.1 256a.84.84 0 0 1-1.06.73 3.61 3.61 0 0 1-.83-.52 12.18 12.18 0 0 0-4.74-2.44 50.84 50.84 0 0 1-6.84-2.69 6.3 6.3 0 0 1-1.33-.86.77.77 0 0 1-.07-1.07.71.71 0 0 1 .89-.22c.66.3 1.3.66 2 .93a56.78 56.78 0 0 0 6.17 2.23 12.72 12.72 0 0 1 4.75 2.44 6.93 6.93 0 0 1 .95 1 1.18 1.18 0 0 1 .11.47ZM327.26 239.94c3.4 0 6.74.65 10.12.87a2.28 2.28 0 0 1 .57.15.9.9 0 0 1 .54 1 .78.78 0 0 1-.66.65 4.09 4.09 0 0 1-1 0c-2.37-.22-4.76-.42-7.13-.7a48.52 48.52 0 0 0-5-.27 6.53 6.53 0 0 1-1.17-.11c-.37-.08-.72-.62-.61-.91a.83.83 0 0 1 .72-.61h2Z"/><path fill="rgb(122, 255, 51)" d="M275.47 109.41a4.08 4.08 0 0 0-.76-2.14 3.88 3.88 0 0 1 4.08-6c.38.1.75.24 1.12.37.37.54.79 1 1.11 1.63a4 4 0 0 1-2.17 5.82 3.08 3.08 0 0 1-2.49-.23c-.71-.36-.74.14-.89.55Z"/><path fill="rgb(122, 255, 51)" d="M239.48 480.52c.49.16.68.53 1 .82a11.91 11.91 0 0 0 13.35 3 15.91 15.91 0 0 0 5.33-3.44l.69-.65c.55.11.64.53.79.88a20.57 20.57 0 0 1 1.06 2.58c.63 2.17 1.18 4.36 1.75 6.55.07.25.11.52.19.77.58 1.86-.29 3.06-1.78 4a18.84 18.84 0 0 1-5.95 2.25 65.74 65.74 0 0 1-9.48 1.33 113 113 0 0 1-16.56-.12 141.18 141.18 0 0 1-26.54-4.34c-.52-.14-1-.29-1.53-.46a.6.6 0 0 1-.32-1 5.25 5.25 0 0 1 3.51-2.71 14.58 14.58 0 0 1 5-.14 36.39 36.39 0 0 0 18.83-2.84 35.89 35.89 0 0 0 10.06-6 5.68 5.68 0 0 1 .6-.48ZM392.23 393.27c-.3-1-.51-1.64-.68-2.28a48.34 48.34 0 0 0-4.12-10.15 25.53 25.53 0 0 0-9.89-10.17l-1.88-1.13c-.05 0-.07-.11-.18-.29a28.16 28.16 0 0 0 3.72-1.64 7.24 7.24 0 0 0 3.06-2.77c1.46-2.66 1.52-5.72-1-8.23a14.63 14.63 0 0 0-9.45-4.21h-1.2c-.4 0-.69-.38-.4-.82a9.48 9.48 0 0 1 4.1-3.68 11.78 11.78 0 0 1 5.78-1.26c1.12.1 2.26.08 3.39.11a2.21 2.21 0 0 1 2 1.33 67.57 67.57 0 0 1 6.52 16.25c.52 2.2 1.19 4.37 1.79 6.55a66.18 66.18 0 0 1 1.74 11 12.44 12.44 0 0 1-.22 3 40.66 40.66 0 0 1-.92 4.9 8.65 8.65 0 0 1-2.16 3.49Z"/><path fill="rgb(255, 255, 255)" d="M257.81 107.74a17.9 17.9 0 0 0 5.56-.28c.74-.15 1.47-.26 2 .44a2 2 0 0 1 0 2.25 3.35 3.35 0 0 1-.57.82 14.9 14.9 0 0 1-7.08 4.23 3.59 3.59 0 0 1-1.18 0 .53.53 0 0 1-.42-.59c0-.17.13-.44.26-.48.5-.18 1-.27 1.54-.42a13.28 13.28 0 0 0 6.09-4 .33.33 0 0 0 .1-.17 1.28 1.28 0 0 0 .07-.57c-.05-.19-.26-.23-.48-.2-.85.11-1.72.19-2.57.3a26.45 26.45 0 0 1-6.16-.29.52.52 0 0 1-.42-.59.53.53 0 0 1 .52-.51c.93.05 1.81.06 2.74.06Z"/><path fill="rgb(255, 255, 255)" d="M262.73 84.36a.92.92 0 0 1-.91 1.08 3.16 3.16 0 0 1-1.23-.61 6.35 6.35 0 0 0-4.8-.73 5.32 5.32 0 0 0-2.25 1.22 1.51 1.51 0 0 1-.84.49.84.84 0 0 1-.87-.36.7.7 0 0 1-.05-.76 4.33 4.33 0 0 1 .75-.91 7.9 7.9 0 0 1 9.76 0 1.29 1.29 0 0 1 .44.58Z"/><path fill="rgb(255, 255, 255)" d="M245.06 82.21a7.78 7.78 0 0 1 3.61 1 1.61 1.61 0 0 1 .57.53.81.81 0 0 1 0 .93.83.83 0 0 1-.7.31 2.85 2.85 0 0 1-1.12-.4 5.33 5.33 0 0 0-6.24 1.14 5 5 0 0 1-.73.66.74.74 0 0 1-.93-.09.78.78 0 0 1-.25-.9 3 3 0 0 1 .51-.83 7.26 7.26 0 0 1 5.28-2.35Z"/><path fill="rgb(255, 255, 255)" d="M248.57 102.91a13.34 13.34 0 0 1 1.61-3.65.59.59 0 0 1 .72-.21.83.83 0 0 1 .58.73 1.84 1.84 0 0 1-.13.77c-.2.49-.47 1-.68 1.44-.47 1.12-.34 1.51.67 2.13.39.24.81.44 1.19.7a.76.76 0 0 1 .32.87.73.73 0 0 1-.75.54 4.15 4.15 0 0 1-3.46-2.58 5 5 0 0 1-.07-.74Z"/><path fill="rgb(255, 255, 255)" d="M133.79 46.58a12.26 12.26 0 0 1 2.94-7.12 1.91 1.91 0 0 1 .61-.49.81.81 0 0 1 .92.13.7.7 0 0 1 .24.88 4.05 4.05 0 0 1-.52.84 11.55 11.55 0 0 0-2.18 6.46 10.55 10.55 0 0 1-.1 1.38 1 1 0 0 1-.52.55.75.75 0 0 1-.88-.28 3.41 3.41 0 0 1-.51-2.35Z"/><path fill="rgb(255, 255, 255)" d="M134.16 39.31a12.9 12.9 0 0 1-3.62-.91 1.41 1.41 0 0 1-.75-.63.85.85 0 0 1 0-.76.7.7 0 0 1 .64-.4 2 2 0 0 1 .77.14 8.17 8.17 0 0 0 3.67.75 1.36 1.36 0 0 1 .4 0 1 1 0 0 1 .7.86.76.76 0 0 1-.6.71Z"/><path fill="rgb(255, 255, 255)" d="M407 52.12c0 .31-.09.91-.17 1.5a1.67 1.67 0 0 1-.55 1 .62.62 0 0 1-.72.19 1.28 1.28 0 0 1-.53-.55 1.66 1.66 0 0 1 0-.77 12.19 12.19 0 0 0-1.21-7.49 2.35 2.35 0 0 1-.24-.54.71.71 0 0 1 .35-.85.75.75 0 0 1 .92.13 4.42 4.42 0 0 1 .69 1 14.67 14.67 0 0 1 1.46 6.38Z"/><path fill="rgb(255, 255, 255)" d="M408.64 45.35a4.93 4.93 0 0 1-1.82-.32c-.43-.15-.69-.42-.62-.88s.37-.79.81-.7a13 13 0 0 0 4.53-.23.79.79 0 0 1 .88.62.81.81 0 0 1-.54.95 8.68 8.68 0 0 1-3.24.56Z"/><path fill="rgb(255, 255, 255)" d="M257 88.3a2.68 2.68 0 0 0-2.87.86 3.81 3.81 0 0 0-.76 4.22 2.57 2.57 0 0 0 3.63 1.15 3.76 3.76 0 0 0 1.88-3.27A3 3 0 0 0 257 88.3Zm-2 4.2a.43.43 0 0 1-.53-.16 1.33 1.33 0 0 1-.11-1.49 1.26 1.26 0 0 1 .32-.5.88.88 0 0 1 .53-.21.59.59 0 0 1 .54.5c0 .2 0 .4.06.54a1.47 1.47 0 0 1-.88 1.32Zm2.29.17a.38.38 0 0 1-.37.34.34.34 0 0 1-.31-.5c.07-.16.2-.33.41-.24a.34.34 0 0 1 .2.4ZM246.4 88.49a2.89 2.89 0 0 0-3.26 1.67 3.66 3.66 0 0 0-.18 2.9 2.62 2.62 0 0 0 4.2 1.19 3.49 3.49 0 0 0 1.35-2.51 3.07 3.07 0 0 0-2.11-3.25Zm-1.92 4.11a1.23 1.23 0 0 1-.2 0 .86.86 0 0 1-.49-.58 2.16 2.16 0 0 1 .42-1.69.68.68 0 0 1 .7-.27.7.7 0 0 1 .6.45 1.68 1.68 0 0 1-1.03 2.09Zm2.08.35a.33.33 0 0 1-.4-.29.44.44 0 0 1 .38-.55c.26-.09.36.14.37.29s-.01.5-.35.6Z"/></svg>
