<svg xmlns="http://www.w3.org/2000/svg" fill="#ffffff" data-name="Layer 1" viewBox="0 0 517 516"><g data-name="product planning or strategy"><path d="M495.68 207.83c-.22-1.67-.53-3.33-.81-5a69.63 69.63 0 0 0-5.16-16.93 28.36 28.36 0 0 0-3-5.43 32.63 32.63 0 0 0-13.4-11 19 19 0 0 0-3.9-1.22 78.72 78.72 0 0 0-8.13-.95 37.58 37.58 0 0 0-13.31 1.34 67.2 67.2 0 0 0-9.34 3.39c-.38.17-.75.54-1.41.3a21.5 21.5 0 0 1 .47-3.2 17.5 17.5 0 0 0 .73-5.39 5.62 5.62 0 0 0 0-.58 1.8 1.8 0 0 1 1.48-2 10.65 10.65 0 0 0 2.79-1.37c1.07-.75 2.13-1.5 3.22-2.2a9.19 9.19 0 0 0 3.39-3.69 16.48 16.48 0 0 0 1.91-8.66 24.1 24.1 0 0 0-2.56-9.34c-.87-1.67-1.81-3.3-2.72-5-.21-.37-.56-.69-.53-1.18.13 0 .26-.09.36-.05a1.32 1.32 0 0 0 1.83-.59c.34-.68 0-1.25-.56-1.71l-.15-.13a88.25 88.25 0 0 0-12.32-10.18 61.22 61.22 0 0 0-14.7-7.55c-.31-.1-.74-.13-.88-.61l2.37-.92a10.24 10.24 0 0 0 1.08-.45c.52-.29 1-.68.9-1.37a1.54 1.54 0 0 0-1.17-1.18 6.37 6.37 0 0 0-.78-.11 34.69 34.69 0 0 0-6-.5 37.2 37.2 0 0 0-9.11.81 64.47 64.47 0 0 0-18.5 7.59 24.41 24.41 0 0 0-6.71 5.9 31 31 0 0 0-4.47 8.4 22 22 0 0 0-1.32 4.27 2.78 2.78 0 0 0 .69 2.69 12.67 12.67 0 0 1 1.31 1.94 8 8 0 0 1 1.18 2.87 61.67 61.67 0 0 1 1.19 9.28 96.13 96.13 0 0 0 .77 9.73c.37 2.7.7 5.41 1.07 8.12.18 1.29.33 2.59.6 3.85a30.73 30.73 0 0 0 12.65 19.26 25.45 25.45 0 0 0 12.73 5 5.2 5.2 0 0 1 1 .16c.34.1.79-.09 1 .48l-5.26 5.42a156.49 156.49 0 0 0-11 12.16c-2.25 2.86-4.58 5.66-6.8 8.55a157.03 157.03 0 0 0-5.6 7.75 4.11 4.11 0 0 1-2 1.66q-6.39 2.4-12.76 4.83a16 16 0 0 1-3.2.82c-3.33.53-4.87-.89-6-2.88-.48-.85-.87-1.75-1.41-2.56a5.06 5.06 0 0 1-.85-2.92q-.42-30.47-.89-60.93-.31-22.56-.55-45.11c0-3.78-.06-7.56-.11-11.33q-.23-16-.47-32-.18-11.33-.34-22.65a12.26 12.26 0 0 0-.07-1.36 1.13 1.13 0 0 0-1.24-1.17c-.64-.05-1.3 0-2 0q-46.77.15-93.55.28c-37 .09-74 .06-110.94.23q-59 .26-118 .26h-3.13A1.28 1.28 0 0 0 22 55a10.4 10.4 0 0 0-.05 1.37v7.61l-.4 111.13q-.13 42.48-.2 85-.12 44.13-.29 88.28v1.75a1.17 1.17 0 0 0 1.25 1.22h1.76l34-.24 88.47-.5q47.26-.31 94.53-.66 56.06-.35 112.1-.63h1.37c1.08-.09 1.49-.51 1.55-1.61v-1.36c-.05-2.28-.12-4.56-.15-6.84l-.74-56.05c0-2.22-.19-2 2-1.95 3.45.07 6.91.09 10.35-.16 4.28-.3 8.56-.72 12.84-1.09 1.06-.33 1.73-.19 1.34 1.16a146.61 146.61 0 0 0-2.5 19.13c-.33 5-.54 10-.8 15-.27 5.28 0 10.54.24 15.8.18 4 .7 8 .9 12.07a118.78 118.78 0 0 0 2.3 16.57c.71 3.63 1.6 7.23 2.12 10.9q1.06 7.44 2.2 14.86a33.39 33.39 0 0 0 .89 4.58c1.29 4.32 3.7 7.52 8.48 8.42 2.49.47 4.95 1.11 7.47 1.39.88.09.91.11.83.93-.23 2.26-.56 4.52-.69 6.79-.2 3.58-.73 7.12-1.16 10.67-.38 3.22-.92 6.44-1.24 9.67-.39 4-.67 8-.92 12.07-.42 6.95-.79 13.9-1.16 20.85-.1 1.92 0 2 1.91 1.79a1.34 1.34 0 0 0 .36-.14c.33-6.24.64-12.48 1-18.72.24-4.09.47-8.18.83-12.26.3-3.37.77-6.72 1.19-10.08.58-4.71 1.27-9.41 1.49-14.16.09-2 .32-4 .54-6 .09-.86.24-1 1.12-1 4.62.05 9.23-.38 13.84-.67a85.11 85.11 0 0 0 10-1.42c1.21-.21 2.42-.46 3.64-.68.79-.15.79-.15 1.19.56a38.07 38.07 0 0 0 5.9 8 9.72 9.72 0 0 0 5.08 3.09l.37.12c1 .33 1 .42 1 1.36 0 .32-.06.65-.06 1-.05 3.39-.14 6.77-.13 10.16a20.51 20.51 0 0 0 1.55 7.8 6.65 6.65 0 0 0 2.68 3.26 2.57 2.57 0 0 0 3.87-1.25 1.87 1.87 0 0 0 .05-.94.94.94 0 0 0-1.07-.64 2.41 2.41 0 0 0-1 .62.76.76 0 0 1-1.06 0 4.92 4.92 0 0 1-1.5-2.25 18.68 18.68 0 0 1-1.19-6.1c0-4.75 0-9.5.27-14.25s.55-9.35.83-14c0-.79 0-.81.86-1 3.27-.85 6.55-1.67 9.82-2.54 5.14-1.38 10.28-2.8 15.43-4.2.69-.19.83-.13 1 .48a10.23 10.23 0 0 1 .26 1.34 133.49 133.49 0 0 1 .77 18.32q-.12 5-.1 10a102.52 102.52 0 0 1-1 14c-.66 4.9-1.44 9.78-2.51 14.6a112.7 112.7 0 0 1-4.19 14c-.45 1.22-.94 2.42-1.41 3.63a3.88 3.88 0 0 0 1.91.16.71.71 0 0 0 .71-.55c.09-.24.22-.47.31-.71a125.63 125.63 0 0 0 4.75-15.03c1.1-4.49 1.79-9.06 2.5-13.62a111.34 111.34 0 0 0 1.36-16.91c0-4.23.06-8.47.1-12.7a81.8 81.8 0 0 0-.4-10.14c-.31-2.64-.62-5.27-.93-7.95.36-.19.7-.38 1.05-.55a9 9 0 0 0 4.69-5.47 30.28 30.28 0 0 0 1.39-5.67c.89-6.12 1.52-12.27 2-18.43.57-7 .64-14.05.53-21.08-.15-9.76-.29-19.53-.81-29.28-.25-4.81-.35-9.63-.63-14.44-.49-8.31-1.45-16.59-2.4-24.86q-.89-7.67-1.83-15.32c-.42-3.42-.82-6.84-1.47-10.23-.5-2.62-1-5.23-1.46-7.86-.33-2.06-.63-4.12-1.08-6.15-.07-.31-.23-.62 0-.92a2.27 2.27 0 0 1 1.29.36c1.13.48 2.25 1 3.42 1.41 4.26 1.36 7.41-.33 9.18-3.74a7.8 7.8 0 0 0 .73-2.42 45.88 45.88 0 0 0 .45-13.03Zm-54.59-68.21a18.18 18.18 0 0 1 4.51 5.79 2.07 2.07 0 0 1 .28.72.58.58 0 0 1-.28.47.61.61 0 0 1-.53 0 2.62 2.62 0 0 1-.56-.77 18.57 18.57 0 0 0-5.52-6.45 47 47 0 0 0-5.41-3.8 12.69 12.69 0 0 0-3.19-1.42.57.57 0 0 1-.32-.43c0-.28.23-.43.63-.54.44.15 1 .3 1.52.52a21.12 21.12 0 0 1 3.58 2 54.77 54.77 0 0 1 5.29 3.91Zm-9.35-.13a.61.61 0 0 1-.41.59 1.82 1.82 0 0 1-1.15-.09 29.23 29.23 0 0 1-8.77-4.9 3.27 3.27 0 0 1-1.07-1.37.58.58 0 0 1 .15-.7.42.42 0 0 1 .66.09c1.31 2 3.43 2.93 5.38 4a13.49 13.49 0 0 0 4.68 1.85.68.68 0 0 1 .53.53Zm-14.39-25.17c.11-.31.5-.36 1-.1s.91.49 1.35.77a64.57 64.57 0 0 1 14.24 12.29c.33.4.65.8 1 1.22a2 2 0 0 1 .18.5c-.09.15-.13.32-.22.35s-.44.12-.53 0a13.07 13.07 0 0 1-1.2-1.27 66.07 66.07 0 0 0-13.37-11.83c-.65-.43-1.33-.8-2-1.22-.28-.13-.6-.3-.45-.71ZM392 117.66a1.51 1.51 0 0 1 .35-.14 45.32 45.32 0 0 1 9.33-1.21 29.37 29.37 0 0 1 6.09.89 36.29 36.29 0 0 1 6.62 2.3 23.89 23.89 0 0 1 2.18 1.28c.33.2.63.48.45 1-.11.28-.54.31-1 0a21.36 21.36 0 0 0-4-2 30 30 0 0 0-18.55-1.4 2.65 2.65 0 0 1-1.33.18.46.46 0 0 1-.38-.39.44.44 0 0 1 .24-.51Zm23.6 10.86a.74.74 0 0 1-.33.44 1 1 0 0 1-.56 0 95.07 95.07 0 0 1-9.89-1.84 5.7 5.7 0 0 1-.9-.33.52.52 0 0 1-.36-.61c.08-.31.35-.32.57-.32l3.06.67c2.33.53 4.68.92 7.05 1.23a9.21 9.21 0 0 1 1.13.26.36.36 0 0 1 .24.5Zm-7.32 63.38a24.82 24.82 0 0 1-13.64-5.72A28.23 28.23 0 0 1 384 167.33a186.3 186.3 0 0 1-2-19.59 43 43 0 0 0-1.49-9.81 10.86 10.86 0 0 0-1.35-3 .63.63 0 0 1 .11-.87 10.63 10.63 0 0 1 .87-.77 46.09 46.09 0 0 1 10.26-5.94 17.17 17.17 0 0 1 8.39-1.22c.11.47-.26.54-.53.68a19.08 19.08 0 0 0-4 2.72 6.21 6.21 0 0 0-1.53 2 1.59 1.59 0 0 0 1.34 2.29 5.41 5.41 0 0 0 1.74-.15c2-.41 4.06-.89 6.12-1.16a22 22 0 0 1 11.48 1.38 7.37 7.37 0 0 1 .68.37c.19.42-.16.54-.41.7a8.1 8.1 0 0 0-1.29.42 1.25 1.25 0 0 0-.16 2.11 5.31 5.31 0 0 0 1.39.69 26.84 26.84 0 0 1 11.1 7.68c.3.34.61.67.93 1a3.82 3.82 0 0 0 4.47.93 11.47 11.47 0 0 0 3.27-1.71c1.69-1.37 3.49-1.21 5.32-.47a5.49 5.49 0 0 1 3.59 4 9 9 0 0 1-2.37 8.27 2.88 2.88 0 0 1-1.53.78 2.62 2.62 0 0 0-2.05 2.54 20.19 20.19 0 0 0-.11 2.33 12.57 12.57 0 0 1-.4 3.48 34.53 34.53 0 0 0-1 6 1.83 1.83 0 0 1-.95 1.57 80.12 80.12 0 0 0-11.87 8.85c-3.37 2.86-6.88 5.57-10 8.75a.88.88 0 0 1-1.2.25 5.78 5.78 0 0 0-2.53-.53Zm-56.5 155.21-85.15.48q-64.93.39-129.87.8-55.86.36-111.71.77c-1.93 0-1.76.14-1.76-1.79L23.62 237q.18-55.76.35-111.52l.22-61.32c0-2.41.08-4.81.14-7.21 0-.76.15-.88.93-.91h1.76l178.31-.43 142.57-.38h1.36c.5 0 .68.29.68.75 0 1.82 0 3.65.05 5.47l.54 40.81q.35 27.15.67 54.29.39 30.57.79 61.12c0 2.27.1 4.54.16 6.82-.2 0-.39.05-.43 0-3.23-4.72-6.65-9.31-9.71-14.14-.87-1.38-1.77-2.73-2.69-4.07a33.76 33.76 0 0 1-3-5.46 35.61 35.61 0 0 0-1.86-3.64 5.08 5.08 0 0 0-4.52-2.9 2.38 2.38 0 0 1-1.83-.95 13.42 13.42 0 0 1-2.72-4.91c-.67-2-1.32-4.08-1.91-6.15a38 38 0 0 0-2.55-6.52l-2-4a21.54 21.54 0 0 0-2.52-3.93 50.37 50.37 0 0 0-3.78-4 12.1 12.1 0 0 0-7.29-3.4 6.74 6.74 0 0 1-3.71-1.47 2.87 2.87 0 0 0-3.93-.23 3 3 0 0 0-1 1.8.9.9 0 0 1-.24 0c-3.43-1.84-7.09-3.24-10.36-5.39a16.12 16.12 0 0 0-4.91-2.35 4.56 4.56 0 0 0-4.56.92 2.67 2.67 0 0 0-.43 3.84 11.41 11.41 0 0 0 2.14 2.25 85.44 85.44 0 0 0 9.08 6.41.5.5 0 0 1 .05.74 3.5 3.5 0 0 0-.58.12 4.61 4.61 0 0 0-3.25 5.81 2.25 2.25 0 0 1-.12 2 2.82 2.82 0 0 0 .24 3.31 4.44 4.44 0 0 1 .69 4.35 4.43 4.43 0 0 0 1.29 4.3 8.8 8.8 0 0 0 3.05 2.06 6.82 6.82 0 0 1 2.27 1.47 11.4 11.4 0 0 0 3.28 2.07c3.63 1.76 7.21 3.6 10.67 5.68a3.8 3.8 0 0 1 1.59 1.61c.65 1.35 1.37 2.66 2.11 4a1.9 1.9 0 0 1 .26 1.47 11 11 0 0 0 .94 7c1.09 2.5 2.18 5 3.29 7.5 2.87 6.41 5.32 13 7.84 19.54 2.62 6.79 5.31 13.55 8.31 20.18 1.37 3 2.48 6.14 4.06 9.06a31.72 31.72 0 0 0 4.56 6.78 17 17 0 0 0 10.5 5.48l3.29.41c1.1.13 1.14.17 1.18 1.34 0 .84 0 1.69.05 2.54.05 5.92.07 11.85.15 17.77q.3 21.09.66 42.18c.03 2.4.25 2.13-2.02 2.14ZM310 198.45a4.53 4.53 0 0 0-.71-.32 29.84 29.84 0 0 1-4.46-2.39 88.29 88.29 0 0 0-9.08-4.92c-.82-.39-1.61-.84-2.4-1.3a3.41 3.41 0 0 1-1.86-2.79c0-.13 0-.26-.06-.39a9.49 9.49 0 0 0-2.78-5.46 17.17 17.17 0 0 1-2.71-3.06 3.66 3.66 0 0 1-.65-1.4.89.89 0 0 1 .15-.54c.11-.16.29-.17.49-.06.81.42 1.62.84 2.44 1.23a9.09 9.09 0 0 1 2.61 2 9.2 9.2 0 0 0 .81.84.76.76 0 0 0 .91 0 .87.87 0 0 0 .38-1 2.44 2.44 0 0 0-.7-1.15 11 11 0 0 0-3.18-2.54 25.19 25.19 0 0 1-2.25-1.17 2.61 2.61 0 0 1-1.24-3.18 2.21 2.21 0 0 1 2.81-1.71 11.05 11.05 0 0 1 2.88 1.15c1 .51 1.94 1.06 2.93 1.54a1.2 1.2 0 0 0 1.58-.27 1.77 1.77 0 0 0 0-1.84 9 9 0 0 0-.7-.68 26.94 26.94 0 0 0-5.71-4 72.91 72.91 0 0 1-9.77-6.76 9.48 9.48 0 0 1-1.77-1.81.83.83 0 0 1 .23-1.32 2.35 2.35 0 0 1 2-.4 10.66 10.66 0 0 1 2.91 1.1c1.4.83 2.75 1.73 4.18 2.5 2.12 1.12 4.31 2.13 6.44 3.23a44.67 44.67 0 0 1 5.51 3.31 13.82 13.82 0 0 0 3.65 1.81 27.14 27.14 0 0 1 4.67 1.92 1.57 1.57 0 0 0 .55.19 1 1 0 0 0 1-.49.86.86 0 0 0-.1-1.08 3.46 3.46 0 0 0-1.43-1c-1.15-.46-2.27-1-3.44-1.35a18.57 18.57 0 0 1-3.36-1.54 4.47 4.47 0 0 1-1.83-2c-.18-.36-.31-.72.08-1s.74-.1 1.08.07a3.07 3.07 0 0 1 .6.49 5.68 5.68 0 0 0 3.33 1.46c.25 0 .51 0 .77.08a11.91 11.91 0 0 1 6.87 3.36 25.25 25.25 0 0 1 6 8.3 21.55 21.55 0 0 0 1 2.1 37.18 37.18 0 0 1 3 7.78c.4 1.37.79 2.75 1.23 4.1A17.48 17.48 0 0 0 326 194a2.14 2.14 0 0 1 .2.62c-1.44.44-2.86.85-4.27 1.3a55.92 55.92 0 0 0-8.79 3.68 7.93 7.93 0 0 0-1.94 1.61c-.31.32-.46.79-.94.94-.61-.39-.63-1.11-1-1.55.13-.56.65-.5.9-.79a.9.9 0 0 0-.16-1.36ZM289.39 187a4.4 4.4 0 0 1-2.72-2.18 2.5 2.5 0 0 1 .14-2.74 7.1 7.1 0 0 1 2.58 4.92Zm159.22 216.47c-.09 1.1-.16 2.21-.26 3.31a.48.48 0 0 1-.67.47 7 7 0 0 1-3.16-1.42 31.06 31.06 0 0 1-6.69-8.31s0-.13 0-.2c.11-.26.37-.33.61-.4l10.95-2.87c-.28 3.35-.54 6.38-.78 9.42Zm44.64-184.74c-.1.77-.24 1.54-.4 2.31a4.94 4.94 0 0 1-6.29 3.91c-1-.33-1.94-.72-2.9-1.13-3.41-1.44-6.76-3-10.27-4.22a71.67 71.67 0 0 0-16.07-3.89 20.4 20.4 0 0 0-13.51 3.48 3.48 3.48 0 0 0-.6.49 1 1 0 0 0-.21 1.08 1 1 0 0 0 .91.63 2.52 2.52 0 0 0 1.63-.56 16.2 16.2 0 0 1 3.31-1.64 18 18 0 0 1 8.81-1.11 56.85 56.85 0 0 1 10.09 2.17c2.74.82 5.43 1.79 8.12 2.74.79.27 1.54.67 2.32 1 .6 4 1.16 7.86 1.79 11.76.51 3.14 1.15 6.27 1.62 9.42s.77 6.06 1.14 9.09q.47 3.78.89 7.57c.39 3.42.76 6.85 1.14 10.27.22 1.94.46 3.88.67 5.82.91 8.16 1.24 16.35 1.64 24.54q.82 16.88.86 33.76c0 4.76 0 9.51-.18 14.26-.16 3.89-.61 7.78-1 11.66-.27 2.79-.62 5.56-.95 8.34a51.15 51.15 0 0 1-1.48 7.65 7.32 7.32 0 0 1-5.17 5.35c-1.05.33-2.13.58-3.19.87-5.14 1.41-10.27 2.84-15.41 4.21-8 2.14-16.07 4.28-24.13 6.32a101.48 101.48 0 0 1-12.27 2.25c-4.65.59-9.33.78-14 1a50 50 0 0 1-15-1.86 7 7 0 0 1-4.4-3.3 12.34 12.34 0 0 1-1.73-4.52c-.73-4.56-1.47-9.11-2.06-13.69-.5-3.93-1.22-7.84-2.06-11.72a129.3 129.3 0 0 1-2.95-18.67c-.41-6.1-.87-12.2-1.24-18.31a128.09 128.09 0 0 1 .31-16.39c.2-3 .36-6 .53-9a120.37 120.37 0 0 1 1.44-13.35c.36-2.18.76-4.35 1.09-6.53.11-.68.39-1.07 1.07-1.17 4.52-.67 8.83-2.16 13.2-3.42 8.42-2.42 16.84-4.87 25.27-7.28 1.56-.44 3.16-.74 4.75-1.1a5.18 5.18 0 0 0 1.8-.69 1.35 1.35 0 0 0 .43-1.88.94.94 0 0 0-1.17-.42c-1.71 1.11-3.73 1.07-5.59 1.61-4 1.15-8 2.25-12 3.4l-21.7 6.29a52.54 52.54 0 0 1-11.09 1.87c-3.51.24-7 .64-10.51.88a99.91 99.91 0 0 1-16.77-.07 40.61 40.61 0 0 1-4.25-.6 15.39 15.39 0 0 1-9.76-6.93 51.45 51.45 0 0 1-4.85-9.31c-2.18-5.29-4.44-10.54-6.64-15.82-1.89-4.56-3.63-9.18-5.36-13.81-2.39-6.39-5.16-12.63-7.91-18.87-.55-1.25-1.07-2.51-1.53-3.8-1-2.83-.15-5.23 1.81-7.33a3.57 3.57 0 0 1 .94-.69 54.17 54.17 0 0 1 14.07-5.06 4 4 0 0 1 1-.11 3.4 3.4 0 0 1 3.18 1.88c.23.47.54.89.77 1.36 1.1 2.28 2.34 4.5 3.62 6.68a.9.9 0 0 1-.15 1.21 16.63 16.63 0 0 1-6.85 4.69c-1.35.47-2.72.86-4.08 1.31a3.58 3.58 0 0 0-1.56.77 1 1 0 0 0-.31 1.06 1.05 1.05 0 0 0 1 .76 5.62 5.62 0 0 0 1.08-.2c1.3-.41 2.6-.83 3.88-1.27a17 17 0 0 0 7.17-4.56c.3-.33.66-.61 1-.89.54 0 .66.46.87.76q4.65 6.75 9.28 13.51c2.21 3.22 4.16 6.6 6.12 10 .29.51.56 1 .89 1.52a7.18 7.18 0 0 0 6.83 3.34 14.29 14.29 0 0 0 4.18-.87l13.66-5.2c4.37-1.66 8.72-3.39 13.12-5 5.46-1.94 10.73-4.29 16-6.66 2.73-1.23 5.44-2.49 8.15-3.74a10.91 10.91 0 0 0 1.54-.84 1 1 0 0 0-.84-1.88 1.58 1.58 0 0 0-.56.17c-2.84 1.58-5.9 2.7-8.86 4-4.87 2.16-9.7 4.41-14.72 6.21-3.12 1.12-6.22 2.27-9.33 3.41a.28.28 0 0 1-.42 0 41 41 0 0 1 3.66-5q3.69-4.55 7.3-9.15a104.33 104.33 0 0 1 7.9-8.91c3.78-3.86 7.53-7.75 11.31-11.6.86-.88 1.76-1.74 2.7-2.54 4.14-3.46 8.19-7.05 12.47-10.34a54 54 0 0 1 22.49-10.29 27.23 27.23 0 0 1 8.91-.53c2 .25 4 .25 6 .51a24.28 24.28 0 0 1 12.74 5.84 31.79 31.79 0 0 1 8.92 12.61 83.57 83.57 0 0 1 4.64 16.52 45 45 0 0 1 .25 13.6Z"/><path d="M176.21 277.92c-2.36 0-4.2-1.53-6.28-2.36a16.25 16.25 0 0 1-3.31-1.72A8.29 8.29 0 0 0 161 272c-.29 0-.63.18-.84-.18a5 5 0 0 1 .43-1.7 7.26 7.26 0 0 0 .24-2.7 3.61 3.61 0 0 0-2.66-3.26 5.66 5.66 0 0 0-2.51-.22c-4.1.6-7.37 2.42-9.19 6.34a3.07 3.07 0 0 1-.27.42c-.29.07-.41-.09-.54-.23a5.71 5.71 0 0 0-.55-.55 1.87 1.87 0 0 0-2.78.25 8.92 8.92 0 0 0-1.12 1.59c-.63 1.06-1.2 2.15-1.83 3.21a8.11 8.11 0 0 1-.93 1.25.4.4 0 0 1-.65 0c-.44-.58-.83-1.18-1.25-1.77a11.81 11.81 0 0 0-1.84-2.26 2.28 2.28 0 0 0-3.58.23 18 18 0 0 0-1.24 1.76c-.51.75-1 1.52-1.53 2.25-.33.46-.77.41-1-.11a26.25 26.25 0 0 1-2.48-10 7.85 7.85 0 0 0-.37-2.5 1 1 0 0 0-1-.74 1.12 1.12 0 0 0-1.07.71 2 2 0 0 0-.18.94c0 .72.11 1.43.19 2.14.28 2.3-.34 2.91-3.2 3.67-.81.22-1.63.38-2.46.52-3.16.5-6.32 1-9.49 1.36-1.79.2-3.58.74-5.42.36a1.26 1.26 0 0 0-.76.13 6.66 6.66 0 0 1-2.28.49c-3 .4-2.2.44-2.68-2.26a8 8 0 0 1 .06-1 2.07 2.07 0 0 0-.58-1.35 1 1 0 0 0-1.53.19 2.28 2.28 0 0 0-.18 1.36c.1.78.21 1.55.29 2.33.13 1.19.1 1.22-1 1.33-1.49.14-3 .28-4.46.45a1 1 0 0 0-.91 1.08.89.89 0 0 0 .84.92c1 .14 1.94.2 2.91.29a5.88 5.88 0 0 0 1.39 0 1.52 1.52 0 0 1 1.7 1.33c.08.66.16 1.29.22 1.93a4.81 4.81 0 0 0 .55 2 1.51 1.51 0 0 0 2 .56 3.85 3.85 0 0 0 1.54-1.8l1.85-3.87c.22-.46.47-.92.73-1.37a.51.51 0 0 1 .84 0c.51.66 1 1.33 1.49 2a14.79 14.79 0 0 0 2.67 3 9.23 9.23 0 0 0 4.78 2.25 3.44 3.44 0 0 0 3.69-2 1.08 1.08 0 0 0-.17-1.42c-.41-.37-.84-.35-1.4.09a.44.44 0 0 0-.13.14c-.82 1.12-1.9 1-3 .56a10.32 10.32 0 0 1-1.87-1 12 12 0 0 1-3.13-3.44.53.53 0 0 1 .4-.89c3.22-.43 6.44-.82 9.65-1.3 2.7-.4 5.42-.75 7.88-2.27.21.68.38 1.3.59 1.9.47 1.28 1 2.55 1.43 3.83a4 4 0 0 0 1.23 1.79 2.07 2.07 0 0 0 2.44.1 6.46 6.46 0 0 0 1.74-1.87c.51-.76 1-1.55 1.47-2.3.24-.37.43-.8.89-.95a3.07 3.07 0 0 1 1.22 1.23c.45.64.85 1.31 1.32 1.94a6.5 6.5 0 0 0 1.18 1.28 2.1 2.1 0 0 0 2.54.12 4.76 4.76 0 0 0 1.61-1.67c.76-1.29 1.49-2.59 2.25-3.88.18-.32.29-.75.84-.73.16.32.36.66.51 1a29 29 0 0 1 1.44 4.24 2.2 2.2 0 0 0 .57 1.21 1.17 1.17 0 0 0 1.26.24 1 1 0 0 0 .64-.9 2.35 2.35 0 0 0-.11-1 7.56 7.56 0 0 1-.34-3.27c.14-5.17 5.69-7.95 9.26-7.45a1.5 1.5 0 0 1 1.36 1.42 3.76 3.76 0 0 1-.16 1.73c-.26.81-.5 1.62-.83 2.39a20.59 20.59 0 0 1-2.19 4.12 3.41 3.41 0 0 0-.77 1.77 1.28 1.28 0 0 0 .77 1.25 1.11 1.11 0 0 0 1.23-.34 9.11 9.11 0 0 0 .65-1c.19-.34.33-.71.52-1.05a4.36 4.36 0 0 1 5.85-1.88c.59.26 1.16.58 1.73.89 1.32.71 2.62 1.45 3.95 2.13s2.69 1.28 4.05 1.91a4.07 4.07 0 0 0 2.85.22 1.06 1.06 0 0 0 .77-1.2.76.76 0 0 0-.83-.54ZM97.39 279a.39.39 0 0 1-.32.13c-.08 0-.2-.13-.21-.22-.06-.45-.08-.89-.11-1.34-.14-1.87 0-2 2.06-1.7a18.85 18.85 0 0 1-1.42 3.13ZM228.24 161.89c-.84 0-1.68.15-2.52.22s-1.69.16-2.53.22c-.38 0-.63-.18-.59-.57.09-1.1.19-2.21.33-3.3.36-2.71.78-5.4 1.1-8.12a1.43 1.43 0 0 1 1.16-1.35c.37-.1.77-.14 1.14-.25a3.35 3.35 0 0 0 .88-.4.9.9 0 0 0 .39-1 .93.93 0 0 0-.83-.71 3.94 3.94 0 0 0-1 0c-2.57.37-5.14.77-7.71 1.15-1.35.2-2.7.4-4.05.58-.53.07-.73-.09-.79-.59-.15-1.43-.3-2.85-.41-4.27-.18-2.34-.32-4.68-.5-7a11.39 11.39 0 0 0-.3-1.73c-.2-.86-.67-1.32-1.24-1.26s-1 .68-.79 1.7a32.91 32.91 0 0 1 .45 5c0 1.36.18 2.72.27 4.09s.16 2.46.22 3.7c0 .59-.16.79-.76.9-.19 0-.39 0-.58.06-2.46.28-4.91.58-7.37.8a13 13 0 0 1-3.32.32 8.47 8.47 0 0 1-.09-2.35c0-2.6.09-5.2.12-7.8 0-.52 0-1-.07-1.56a.41.41 0 0 0-.39-.37 3.36 3.36 0 0 0-.77 0c-.85.09-.91.14-.93.92v4.88q-.06 2.92-.15 5.85c0 .65-.17.79-.8.86s-1.3.08-1.95.15a.57.57 0 0 0-.56.65c0 .19 0 .39.05.58.09.79.22.92 1 .86.52 0 1-.12 1.55-.16s.7.15.72.67c0 1.17 0 2.34.05 3.51.07 2.15.16 4.29.24 6.44 0 .8-.09.93-.84 1-1.63.07-3.26 0-4.88.2a41.19 41.19 0 0 1-8.95-.22 22.53 22.53 0 0 1-5.13-1.14 11.28 11.28 0 0 1-1.77-.8 1.21 1.21 0 0 1-.58-1.51 7.24 7.24 0 0 1 1-2.3c1.55-2.25 3.06-4.53 4.69-6.72s3-4.58 5.16-6.31a.88.88 0 0 0-.19-1.35 1.24 1.24 0 0 0-1.47 0 6.67 6.67 0 0 0-1.12 1.07c-1.08 1.3-2.17 2.6-3.18 4a82.56 82.56 0 0 0-6.65 9.61 1.3 1.3 0 0 1-.09.54 2.78 2.78 0 0 1-.5.53.67.67 0 0 1-.14-.7c-1.13-6-2.52-12-3-18.05a1.64 1.64 0 0 0-.1-.38.95.95 0 0 0-1.7-.19 2 2 0 0 0-.26 1.5c.31 2.51.59 5 1 7.54.68 4.49 1.56 9 2.54 13.39a7.67 7.67 0 0 1 .23 1.34 44.92 44.92 0 0 0 .82 5.78 39.14 39.14 0 0 0 1.09 5.14 3.48 3.48 0 0 0 3.25 2.64 29.18 29.18 0 0 0 3.5.15c3.57-.08 7.15-.13 10.72-.34 4.21-.26 8.43-.58 12.62-1 4.52-.5 9-1.22 13.52-1.82 3-.4 6.06-.77 9.09-1.14a3.77 3.77 0 0 0 1.67-.46.94.94 0 0 0 .42-1 1 1 0 0 0-.62-.69 2.12 2.12 0 0 0-1.34-.06 26.49 26.49 0 0 1-4.27.28 5.06 5.06 0 0 1-.91.29c-4.83.66-9.65 1.33-14.48 2-1.68.23-3.36.39-5 .56-.62.06-.83-.1-.89-.73-.22-2.19-.41-4.39-.61-6.59a.66.66 0 0 1 .65-.79c1.42-.18 2.83-.4 4.25-.51 4.67-.35 9.34-.64 14-1 1.86-.15 1.82-.06 1.81 1.51a9.22 9.22 0 0 0 1.25 4.44 1 1 0 0 1 .18.08c.51.35 1.06.6 1.58.1s.27-1.08 0-1.63l-.09-.18a7.39 7.39 0 0 1-.71-3.79c0-.63.13-.8.77-.87 1-.1 2.07-.19 3.11-.24a6.54 6.54 0 0 0 2.28-.47 1.16 1.16 0 0 0 .79-1.21c-.09-.53-.52-.86-1.19-.82Zm-55.13 1.71 2.2 1.28c-.13.41-.34.41-.53.43-1.62.17-1.67.12-1.67-1.71Zm24.16 11.34c-.51.08-1 .15-1.55.18-5.25.34-10.51.61-15.78.63-1.17 0-2.34-.09-3.51-.12a1.38 1.38 0 0 1-1.43-1.09c-.26-.93-.5-1.88-.68-2.84-.25-1.33-.43-2.67-.65-4 .34-.16.39-.22.45-.22 5.53 0 11-.61 16.58-.55 1.88 0 3.77-.11 5.65-.15.67 0 .78.11.85.76q.35 3.3.66 6.6c.05.52-.09.73-.59.8Zm23.75-19c-.26 1.86-.49 3.74-.72 5.61-.12 1-.14 1-1.2 1.12-1.81.15-3.63.28-5.45.41l-12.46.86c-.45 0-.91.06-1.36.06s-.65-.15-.68-.71c-.11-1.68-.21-3.37-.31-5.06h-.06v-4.88c0-.73.17-.9.89-1 .26 0 .52-.05.78-.07 2.91-.3 5.86-.4 8.72-1 3.9-.76 7.9-.73 11.76-1.73a1.67 1.67 0 0 1 .39 0c.38 0 .59.17.53.6-.26 1.9-.57 3.85-.85 5.76ZM212.84 277.07a173.63 173.63 0 0 0 16.49-17.7 2.76 2.76 0 0 1 2.31-1.1c3.24-.16 6.49-.42 9.73-.67.86-.06 1.5-.67 1.43-1.28s-.66-1-1.48-1-1.56.15-2.34.2c-2.07.16-4.15.31-6.22.45a.34.34 0 0 1-.28-.54c.25-.38.53-.74.8-1.11.88-1.2 1.77-2.41 2.64-3.62a2.11 2.11 0 0 0 .51-1.24 1 1 0 0 0-.56-.94.85.85 0 0 0-.92.08 3 3 0 0 0-.78.85c-1.22 2.18-3 3.93-4.46 5.91a1.69 1.69 0 0 1-1.49.72c-1.44 0-2.87.05-4.3.11-5.33.23-10.66.48-16 .72a7.46 7.46 0 0 1-1.16 0c-.17 0-.43-.2-.44-.31-.08-1.09-.48-2.24 0-3.26a2.34 2.34 0 0 0-.38-2.53.88.88 0 0 0-1-.43 1 1 0 0 0-.81.76 6.13 6.13 0 0 0-.14 1.35c0 1.24.06 2.47.07 3.71 0 .87-.09 1-1 1.05l-4.48.37c-.71.07-1.41.19-2.12.27-.47.05-.71-.15-.79-.64 0-.26 0-.52-.07-.78-.26-2.46-.51-4.92-.79-7.37a22.27 22.27 0 0 0-.39-2.31.85.85 0 0 0-.87-.65.93.93 0 0 0-.89.65 2.35 2.35 0 0 0-.09 1c.22 2.4.38 4.81.72 7.19a58.09 58.09 0 0 1 .77 9.31c0 .65.08 1.3.12 1.95.11 1.56.24 3.11.31 4.67.13 2.8.23 5.59.35 8.39.07 1.77.67 2.44 2.47 2.63a16.58 16.58 0 0 0 2.73.05q5.74-.37 11.48-.81 8.17-.63 16.34-1.31c2.08-.17 4.14-.5 6.21-.66s4.2-.89 6.37-.52c.51.09.93-.51.89-1.06a1.27 1.27 0 0 0-.88-1.17 3.37 3.37 0 0 0-1.73-.09c-2.58.31-5.16.62-7.75.89q-4.95.49-9.91.93c-2.85.25-5.7.47-8.56.68-.35 0-.76.18-1.15-.29a16.53 16.53 0 0 1 1.49-1.5Zm-3.92.54c-.51.47-.63 1.34-1.41 1.48a16.85 16.85 0 0 1-2.14.2c-2 .13-4 .26-6 .36a11.69 11.69 0 0 1-1.56-.06.58.58 0 0 1-.58-.63v-2.35c-.28-4.74-.46-9.48-1-14.21-.29-2.67-.5-2.32 2-2.53q2.43-.21 4.86-.36c1.08-.06 1.13 0 1.17 1 .06 1.63.1 3.26.16 4.88.07 2 .1 4 .22 6.05.08 1.36.28 2.72.41 4.08a2.71 2.71 0 0 0 .49 1.26 1.39 1.39 0 0 0 2.19.13c.34-.35.49-.92.16-1.23-.87-.82-.82-1.85-.89-2.89q-.37-5.46-.45-10.92v-1.76c0-.58.16-.81.78-.85 1.75-.12 3.51-.26 5.26-.34 3.84-.17 7.67-.31 11.51-.45h2.82a2.13 2.13 0 0 1-.73 1.33 141.77 141.77 0 0 1-10.45 11.33c-2.28 2.19-4.52 4.37-6.82 6.48Z"/><path fill="rgb(255, 255, 255)" d="M264.53 310.58a5.55 5.55 0 0 0-1.15-.21c-1.55-.15-3.11-.26-4.66-.4-.79-.06-.93-.15-1-.91-.17-2.14-.78-4.23-.48-6.41a.8.8 0 0 0-.63-.87 1 1 0 0 0-1.06.3 1.52 1.52 0 0 0-.43 1.06c0 .72 0 1.43.06 2.14.11 1.41.25 2.8.39 4.31h-2.05c-1.63-.1-3.25-.23-4.87-.36-1.12-.08-1.22-.16-1.44-1.18-.3-1.46-.58-2.93-.88-4.4a2.29 2.29 0 0 0-.54-1.23.94.94 0 0 0-1.06-.27.88.88 0 0 0-.63.89 5.3 5.3 0 0 0 .18 1c.3 1.58.6 3.15.9 4.74-2.06.21-3.32.08-11.37-1.19a1.91 1.91 0 0 1 .48-1.18l2.45-3.76a.81.81 0 0 0-.1-1.07.94.94 0 0 0-1.22-.24 3.15 3.15 0 0 0-1.05 1.13q-1.3 1.95-2.57 3.92a1.16 1.16 0 0 1-1.28.64c-1-.19-1.93-.31-2.89-.49l-8.63-1.63a.82.82 0 0 1-.75-.77c-.11-1-.2-2.07-.32-3.1a3.35 3.35 0 0 0-.2-1 .9.9 0 0 0-.78-.5.86.86 0 0 0-.81.45 1.9 1.9 0 0 0-.22.93c0 .85.11 1.69.17 2.53 0 .52-.15.71-.67.64a8.1 8.1 0 0 1-1-.18 64.17 64.17 0 0 1-6.93-1.94l-.19-.08a1 1 0 0 0-.77 1.78 6.19 6.19 0 0 0 2 .82c2.39.64 4.76 1.31 7.16 1.92a.81.81 0 0 1 .72.76c.17 1.42.34 2.84.52 4.26a.57.57 0 0 1-.51.69c-.51.11-1 .15-1.54.22-1.49.2-3 .39-4.45.6a2.43 2.43 0 0 0-1.1.36 1.06 1.06 0 0 0 .06 1.79 2 2 0 0 0 2 .13 3.07 3.07 0 0 1 1.23-.53c1.3-.11 2.6-.26 3.89-.37.6 0 .77.11.9.77.25 1.34.48 2.68.73 4a4.93 4.93 0 0 0 .26.93 1.1 1.1 0 0 0 2.12-.55c0-.25-.15-.5-.19-.75-.24-1.35-.48-2.69-.69-4-.08-.51.11-.73.61-.78 1.55-.16 3.1-.33 4.66-.43a5.2 5.2 0 0 1 2.18 0c-.43.79-.78 1.48-1.18 2.13a2.46 2.46 0 0 0-.38 1.09 1 1 0 0 0 1.36.92 2.64 2.64 0 0 0 1.08-1.09c.46-.79 1-1.55 1.36-2.37a2.14 2.14 0 0 1 2.13-1.37c.26 0 .52-.07.78-.09l9.14-.83a2.51 2.51 0 0 0 1.65-.46c.69-.65 1.48-.3 2.23-.28a.66.66 0 0 1 .57.47c.13.36.21.75.34 1.12.33 1 .65 2 1 2.93a4 4 0 0 0 1.11 1.59 1.05 1.05 0 0 0 1.41.14c.47-.35.55-.75.25-1.37s-.68-1.26-1-1.92a5.35 5.35 0 0 1-.71-2.6c.31 0 .57-.06.83-.05l5.64.38c1 .07 1.09.17 1.24 1.12s.34 2.18.52 3.27a5.26 5.26 0 0 0 .74 2 .92.92 0 0 0 1 .45 1 1 0 0 0 .78-1 7.53 7.53 0 0 0-.16-1.16c-.22-1.15-.46-2.29-.68-3.44-.16-.86 0-1 .92-.94l4.08.36a7.91 7.91 0 0 0 1 .07 1.18 1.18 0 0 0 1.12-.92 1.23 1.23 0 0 0-.73-1.08Zm-37.07.52c-2.53.19-5.05.47-7.57.72-.38 0-.65-.09-.71-.47-.17-1.16-.33-2.32-.47-3.48a2.36 2.36 0 0 1 .12-.67c3.65.66 7.27 1.28 10.87 2a2.11 2.11 0 0 1-2.24 1.9Z"/><path fill="rgb(255, 255, 255)" d="M64 323.44a9.9 9.9 0 0 0-2.65-2.82 14.92 14.92 0 0 0-4.14-2.13c-1.29-.43-2.61-.8-4-1.23 0-.71-.06-1.29-.14-1.86a1 1 0 0 0-.93-.84 1 1 0 0 0-1 .8 6.11 6.11 0 0 0-.07 1c-.06.69-.11.78-.83.75a18.08 18.08 0 0 0-3.68.36 5.66 5.66 0 0 0-3.56 1.79 2.74 2.74 0 0 0-.69 2.71 5.6 5.6 0 0 0 1.82 2.71 1 1 0 0 0 1.46-1.25c-.25-.38-.58-.71-.82-1.09-.7-1.07-.49-1.76.69-2.33.23-.11.48-.17.73-.26a12.14 12.14 0 0 1 4.24-.38.63.63 0 0 1 .72.7q.23 6.63.44 13.26c0 .54-.24.78-.77.92-1 .27-2 .61-3 .94a2.49 2.49 0 0 0-1.19.65 1.07 1.07 0 0 0 .84 1.79c.51-.11 1-.32 1.49-.45a8.79 8.79 0 0 1 2.77-.68 9.18 9.18 0 0 0 .6 1.9 1.19 1.19 0 0 0 1.31.6 1.05 1.05 0 0 0 .73-1.22c-.06-.45-.19-.89-.25-1.34-.11-.75 0-.87.69-1.14a35.94 35.94 0 0 0 5.19-2.23 13.29 13.29 0 0 0 3-2.15 5.85 5.85 0 0 0 1-7.48Zm-2.08 5.31a6.82 6.82 0 0 1-1.72 1.58 23 23 0 0 1-5.8 2.67c-.11 0-.25 0-.44-.07a5.41 5.41 0 0 1-.12-.72c-.16-3.83-.31-7.67-.46-11.5 0-.89.15-1 1-.78a17.06 17.06 0 0 1 5.66 2.52 7.28 7.28 0 0 1 2.27 2.63 3.29 3.29 0 0 1-.38 3.67ZM72.55 221.83a5.79 5.79 0 0 0-3.12-2.8 10.56 10.56 0 0 0-5.16-.71c-.57.05-1.13.35-1.76 0a14.56 14.56 0 0 1 .49-1.42 4 4 0 0 0-1.64-4.6 6.49 6.49 0 0 0-3.28-1.13 30.46 30.46 0 0 0-3.31 0c-.76 0-1.32 0-1.78-.78a.93.93 0 0 0-1.61.11 1.17 1.17 0 0 0-.24.52c0 .74-.44 1-1 1.24a13.89 13.89 0 0 0-1.39.7 7.66 7.66 0 0 0-2.75 2.4 3.27 3.27 0 0 0-.31 3.5 8.61 8.61 0 0 0 3.62 3.43.93.93 0 0 0 1.11-1.36 10.87 10.87 0 0 0-1-1 16.57 16.57 0 0 1-1.53-1.49 1.5 1.5 0 0 1-.09-2 5.07 5.07 0 0 1 3.26-2.07v2.06a50.83 50.83 0 0 0 .94 9.3 23.33 23.33 0 0 0 2.73 7.57c-2.46.09-4.6.24-6.57-.91a1 1 0 0 0-.18-.07 1.08 1.08 0 0 0-1 1.85 5.16 5.16 0 0 0 2.44 1.12 18.87 18.87 0 0 0 7.56 0 26 26 0 0 0 12.46-5.62 11.41 11.41 0 0 0 2.88-3.41 4.77 4.77 0 0 0 .23-4.43Zm-2.18 3.36a7.29 7.29 0 0 1-1.37 1.87 22.22 22.22 0 0 1-8.8 5.22l-.93.28a2.29 2.29 0 0 1-3-1.1 7.11 7.11 0 0 1-.76-1.57 36.14 36.14 0 0 1-1.68-6.8c-.26-1.94-.38-3.88-.59-5.82 0-1-.09-2.08-.11-3.12 0-.37.22-.56.58-.64a10.52 10.52 0 0 1 5 .05h.19c1.9.57 2.46 1.86 1.52 3.59a8.26 8.26 0 0 1-3 3.23c-.5.31-1 .6-1.48.94a1.35 1.35 0 0 0-.55 1 1.12 1.12 0 0 0 1.35 1.22 6.91 6.91 0 0 0 1.85-1 11.86 11.86 0 0 1 9.31-1.65 4.75 4.75 0 0 1 1.58.73 2.62 2.62 0 0 1 .89 3.57ZM65.76 179.5a3.54 3.54 0 0 0-1.29-2.12 2.25 2.25 0 0 1-.92-1.19c-.85-2.25-1.73-4.48-2.59-6.72a4.13 4.13 0 0 1-.13-.85c.76-.13 1.45-.29 2.15-.36a4.91 4.91 0 0 0 1.83-.62 1 1 0 0 0 .46-1.18.86.86 0 0 0-.89-.62c-.64 0-1.29.14-1.93.22s-1.42.18-2.13.23a.55.55 0 0 1-.58-.41c-.26-.8-.55-1.59-.82-2.39-.88-2.51-1.74-5-2.64-7.54-.4-1.1-.76-2.24-2.17-2.51-.2 0-.33-.37-.53-.53a1.11 1.11 0 0 0-1.89.42 12 12 0 0 0-.62 2q-1.35 5.79-2.66 11.59c-.17.77-.32 1.43-1.23 1.79s-.93 1.07-.22 1.7a1.19 1.19 0 0 1 .47 1.31c-.45 2.23-.85 4.47-1.24 6.71a7.62 7.62 0 0 0-.09 2.57 1.24 1.24 0 0 0 1 1 1.2 1.2 0 0 0 1.2-.46 1.23 1.23 0 0 0 .35-1.43 2.7 2.7 0 0 1-.16-1.89q.52-3.07 1.08-6.14a1.26 1.26 0 0 1 .27-.72c.74-.57 1.29-1.44 2.36-1.55s2.31-.4 3.48-.47c.89-.06 1.88-.76 2.62-.18s.7 1.63 1 2.48a73.94 73.94 0 0 0 2.89 7 13.07 13.07 0 0 0 1.23 2 1.32 1.32 0 0 0 1.74.36 1.39 1.39 0 0 0 .6-1.5ZM57 166.88l-5.75 1a2.1 2.1 0 0 1-.54-.09 5.72 5.72 0 0 1 .36-2.31c.38-2 .82-3.93 1.23-5.89a.74.74 0 0 1 .57-.68 2 2 0 0 0 1.61-1.09c.12.15.3.28.36.45.86 2.58 1.7 5.16 2.54 7.75.17.5.05.78-.38.86ZM181.52 111.2a9.45 9.45 0 0 0-.63-1.42 43.26 43.26 0 0 0-5-7.44 6.77 6.77 0 0 0-1-1c-1.45-1.19-2.72-1.05-3.8.48-.56.8-1 1.65-1.53 2.49a28.36 28.36 0 0 1-3.49 4.93 10.28 10.28 0 0 1-2.54 2.1 5.29 5.29 0 0 1-6.18-.63 11.11 11.11 0 0 1-2-2.35 13.79 13.79 0 0 0-1.14-1.58 1.77 1.77 0 0 0-3 0c-.43.48-.76 1-1.14 1.57-.79 1.11-1.57 2.24-2.39 3.33a6.67 6.67 0 0 1-1.07 1.12c-1.06.9-1.62.83-2.39-.27a11.1 11.1 0 0 1-1.38-2.78c-.36-1.11-.71-2.23-1.09-3.34a5.93 5.93 0 0 0-.62-1.41 1.31 1.31 0 0 0-2.27 0 7.79 7.79 0 0 0-.66 1.4 25 25 0 0 1-1.72 3.71A8.49 8.49 0 0 1 134 113c-1.74 1.12-3.23.79-4.31-.95a7.27 7.27 0 0 1-.9-2.15 11.09 11.09 0 0 0-.57-1.86 1.27 1.27 0 0 0-2.31-.15c-.15.21-.07.6-.52.68a9.82 9.82 0 0 1-.39-.93 4.92 4.92 0 0 0-.8-1.54 2.44 2.44 0 0 0-4-.35 6.45 6.45 0 0 0-1.27 1.71 12.36 12.36 0 0 0-1.32 5.26 6.92 6.92 0 0 0 .6 3 3 3 0 0 0 4.5 1.5 7.87 7.87 0 0 0 1.24-.93 10.62 10.62 0 0 0 2.21-2.94c.25-.44.31-1 .84-1.28.46.2.5.69.72 1.05 1.9 3 4.76 3.59 7.68 1.59a9.82 9.82 0 0 0 2.11-2 15.37 15.37 0 0 0 1.91-3.16 2 2 0 0 1 .62-.95 3.58 3.58 0 0 1 .62 1.41 15.88 15.88 0 0 0 1.85 3.85c1.53 2.15 3.45 2.43 5.5.78a12.9 12.9 0 0 0 2.35-2.6c.65-.89 1.24-1.82 1.87-2.73.47-.69.68-.71 1.11-.06a13.31 13.31 0 0 0 2.92 3.38 7.37 7.37 0 0 0 8.24.81 10.12 10.12 0 0 0 2.65-2 33.17 33.17 0 0 0 5-6.91 3.76 3.76 0 0 1 1.17-1.62 7.58 7.58 0 0 1 .84.76 42.82 42.82 0 0 1 4.69 6.93 5.05 5.05 0 0 1 .24.53.43.43 0 0 1-.26.62 1.81 1.81 0 0 0-.52.26 1 1 0 0 0 .34 1.71 2.75 2.75 0 0 0 .57.12c1.93.27 2.85-.79 2.3-2.64Zm-57.68 1.65a6.62 6.62 0 0 1-2.37 2.5.81.81 0 0 1-1.16-.34 4.66 4.66 0 0 1-.44-2.54 8.19 8.19 0 0 1 1.59-5c.41-.53.85-.48 1.19.12a5.22 5.22 0 0 1 .71 2.59c0 .38-.07.84.31 1.06.81.49.53 1.02.17 1.61ZM96.89 85.55a13.71 13.71 0 0 0-6.1-4 31.48 31.48 0 0 0-5.23-1.28c-.18-.87-.31-1.64-.51-2.39a1 1 0 0 0-1-.75 1.06 1.06 0 0 0-.94 1.06 4.07 4.07 0 0 0 0 .78c.14 1.49-.19 1.32-1.19 1.4a11.64 11.64 0 0 0-4.46 1.29 7.57 7.57 0 0 0-3 2.69 5.47 5.47 0 0 0-.28 5.74 3.67 3.67 0 0 0 .71.91 1 1 0 0 0 1.54-1 3.74 3.74 0 0 0-.28-.52 3.83 3.83 0 0 1 1.24-5.15 8.85 8.85 0 0 1 5.31-1.66c.4 0 .57.23.59.6v1.56c.08 6.57.13 13.14.25 19.72 0 1.07.07 2.08-1 2.71-.11.06-.17.2-.24.3a1.41 1.41 0 0 0 .53 2.27 9 9 0 0 0 .93.36c0 .61.09 1.19.12 1.77a105.8 105.8 0 0 0 1.58 14.54 32.4 32.4 0 0 0 1.48 5.65 6.31 6.31 0 0 0 1.12 2 1.84 1.84 0 0 0 3.13-.18 4.48 4.48 0 0 0 .68-3.17 1 1 0 0 0-.82-1 1.06 1.06 0 0 0-1.19.77c-.06.18 0 .4-.09.58s.11.55-.25.56a.67.67 0 0 1-.53-.57c-.38-1.38-.83-2.74-1.12-4.14A122.43 122.43 0 0 1 86 110.35a2.29 2.29 0 0 1 .17-1.52 1.12 1.12 0 0 0 .13-.94c-.18-.55.08-.83.51-1.11.87-.56 1.71-1.18 2.57-1.77a31.32 31.32 0 0 0 4.93-4.12 17 17 0 0 0 4.2-6.72 8.82 8.82 0 0 0-1.62-8.62Zm-.79 8.66a14.09 14.09 0 0 1-1.49 2.72c-2.19 3.23-5.28 5.43-8.79 7.75-.21-7.56-.34-14.74-.35-21.88a2.44 2.44 0 0 1 1.46 0 21.86 21.86 0 0 1 4.62 1.49A11.5 11.5 0 0 1 94 85.82a6.87 6.87 0 0 1 2.1 8.39Z"/><path fill="rgb(255, 255, 255)" d="M412.32 150.12a1.92 1.92 0 0 0-2.72-.35 1.49 1.49 0 0 0-.67.88 5.17 5.17 0 0 0-1.16 3 3.7 3.7 0 0 0 .36 2.09 2 2 0 0 0 3.07.82 2.69 2.69 0 0 0 1.23-1.66 3.88 3.88 0 0 0 .73-2.51 3.66 3.66 0 0 0-.84-2.27Zm-1.71 3.21-.16.38c-.33.15-.61.56-1 .29a1 1 0 0 1-.45-1 2.65 2.65 0 0 1 .73-1.93c1.05.29 1.05.29 1.12 1.69-.02.24-.19.37-.24.57Zm1.35 1.55c-.9.17-1 .13-1.11-.75a4.16 4.16 0 0 0 .39-.32c.63.1.76.51.76 1.07Z"/><path fill="rgb(255, 255, 255)" d="M397.16 150.77a1.77 1.77 0 0 0-1.94-1 3.12 3.12 0 0 0-2.17 1.5 8.71 8.71 0 0 0-.93 5.44 2.27 2.27 0 0 0 1.61 2 2.36 2.36 0 0 0 2.26-.82 5.31 5.31 0 0 0 .84-1.05 6.28 6.28 0 0 0 .94-3.51 4.92 4.92 0 0 0-.61-2.56Zm-2.47 4.46a.67.67 0 0 1-1-.2 7.1 7.1 0 0 1-.2-.72c.08-.41.12-.79.22-1.16a.63.63 0 0 1 .53-.49.73.73 0 0 1 .78.44 1.94 1.94 0 0 1-.33 2.13Zm1.16.92a.51.51 0 0 1-.43-.28.43.43 0 0 1 .36-.55c.28 0 .46.09.58.81-.01-.13-.3 0-.51.02Z"/><path fill="rgb(255, 255, 255)" d="M417.83 172.81a1.23 1.23 0 0 0-1.3-.68 14 14 0 0 0-1.72.28 71.79 71.79 0 0 0-9.11 2.85 37.2 37.2 0 0 1-6.08 2.06 3.1 3.1 0 0 0-.55.21 1.17 1.17 0 0 0-.88 1.15 1.36 1.36 0 0 0 .77 1.25 3.29 3.29 0 0 0 2.05.52 3.24 3.24 0 0 1 2.36.57 5.55 5.55 0 0 0 3 .86 6.25 6.25 0 0 0 3-.59c.58-.28 1.16-.58 1.72-.91a15.42 15.42 0 0 0 3.34-2.68c1.07-1.14 2.11-2.3 3.17-3.45a1.2 1.2 0 0 0 .23-1.44Zm-4.79 2.9a13.41 13.41 0 0 1-4.55 3.53 4.27 4.27 0 0 1-4.25-.18c-.15-.09-.24-.28-.44-.51a76 76 0 0 1 9.3-3.26c-.02.21 0 .35-.1.42Z"/><path fill="rgb(122, 255, 51)" d="M401 462.8c.33-6.24.64-12.48 1-18.72.23-4.09.47-8.18.83-12.26.3-3.37.77-6.72 1.19-10.08.58-4.71 1.27-9.41 1.49-14.16.09-2 .32-4 .54-6 .09-.86.24-1 1.12-1 4.62.05 9.23-.38 13.84-.67a85.11 85.11 0 0 0 10-1.42c1.21-.21 2.42-.46 3.64-.68.79-.15.79-.15 1.19.56a38.07 38.07 0 0 0 5.9 8 9.72 9.72 0 0 0 5.08 3.09l.37.12c1 .33 1 .42 1 1.36 0 .32-.06.65-.06 1-.05 3.39-.14 6.77-.13 10.16a20.51 20.51 0 0 0 1.55 7.8 6.65 6.65 0 0 0 2.68 3.26 2.57 2.57 0 0 0 3.87-1.25 1.87 1.87 0 0 0 .05-.94.94.94 0 0 0-1.07-.64 2.41 2.41 0 0 0-1 .62.76.76 0 0 1-1.06 0 4.92 4.92 0 0 1-1.5-2.25 18.68 18.68 0 0 1-1.19-6.1c0-4.75 0-9.5.27-14.25s.55-9.35.83-14c0-.79 0-.81.86-1 3.27-.85 6.55-1.67 9.82-2.54 5.14-1.38 10.28-2.8 15.43-4.2.69-.19.83-.13 1 .48a10.23 10.23 0 0 1 .26 1.34 133.49 133.49 0 0 1 .77 18.32q-.12 5-.1 10a102.52 102.52 0 0 1-1 14c-.66 4.9-1.44 9.78-2.51 14.6a112.7 112.7 0 0 1-4.19 14c-.45 1.22-.94 2.42-1.41 3.63a3.21 3.21 0 0 1-1.54.14h-66.33a3.07 3.07 0 0 1-1.49-.32Z"/><path fill="rgb(255, 255, 255)" d="M380.32 280.26a1.37 1.37 0 0 1 .89-.32c.61 0 .8.18.76.81a.84.84 0 0 1-.31.67.92.92 0 0 1-.07-.36c.06-.56-.19-.76-.74-.72a2 2 0 0 1-.53-.08Z"/><path fill="rgb(122, 255, 51)" d="M449.39 394.05c-.28 3.35-.54 6.38-.78 9.42-.09 1.1-.16 2.21-.26 3.31a.48.48 0 0 1-.67.47 7 7 0 0 1-3.16-1.42 31.06 31.06 0 0 1-6.69-8.31s0-.13 0-.2c.11-.26.37-.33.61-.4Z"/><path fill="rgb(255, 255, 255)" d="M384 228h.42a.41.41 0 0 1-.42.31.34.34 0 0 1-.26-.16c-.07-.15.05-.21.26-.15Z"/><path d="M233.86 210.37a.73.73 0 0 1 .43.79.89.89 0 0 1-.52.77 3.93 3.93 0 0 1-1.12.29c-3.1.33-6.21.6-9.32.95-3.35.39-6.7.86-10.06 1.27-2.13.25-4.27.47-6.4.67s-4.41.36-6.61.53a34.51 34.51 0 0 1-5.66 0 12.3 12.3 0 0 1-5.37-1.54 1 1 0 0 0-1.24.06c-2.19 1.63-4.4 3.25-6.61 4.84a1.15 1.15 0 0 0-.55 1.15c.22 1.74.42 3.49.64 5.23.07.5.42.58.86.51 1.41-.24 2.83-.43 4.24-.69q5.94-1.1 11.94-1.9c4.83-.63 9.67-1.24 14.49-2 6.56-1 13.11-2 19.56-3.55a5.36 5.36 0 0 1 1.73-.24 1.11 1.11 0 0 1 1 .84 1 1 0 0 1-.64 1.07 18.24 18.24 0 0 1-3.76 1c-4.64 1-9.3 1.83-14 2.49-4.19.59-8.37 1.2-12.55 1.8-3.93.56-7.86 1.06-11.78 1.66-3.41.52-6.8 1.13-10.19 1.7a6.48 6.48 0 0 1-1 .14 1.76 1.76 0 0 1-2-1.66c-.12-.64-.18-1.29-.25-1.94-.25-2.39-.59-4.76-.71-7.17-.12-2.59-.57-5.17-.82-7.76-.39-4.08-.72-8.16-1.09-12.24-.19-2.2-.41-4.4-.61-6.61-.1-1.23-.19-2.46-.26-3.69a2.69 2.69 0 0 1 .24-1.53.92.92 0 0 1 .94-.56 1 1 0 0 1 .81.73 1 1 0 0 1 .05.39 31.64 31.64 0 0 0 .4 5.24c.59 6.29 1.22 12.56 1.83 18.84.2 2.07.36 4.14.54 6.17.44.19.69 0 1-.23 1.67-1.23 3.35-2.46 5-3.72.54-.4.58-.56.24-1.13a19.82 19.82 0 0 1-2.22-7.22 44.77 44.77 0 0 0-1.34-6.69 1.37 1.37 0 0 1-.09-.56 1 1 0 0 1 .63-.91.91.91 0 0 1 1.06.25 3.3 3.3 0 0 1 .72 1.58c.32 1.4.59 2.8.88 4.2s.57 3.07.91 4.59a11.23 11.23 0 0 0 .64 2c1 2.36.85 2.09 2.52.76q3.66-2.92 7.28-5.89c.55-.44.56-.61.12-1.09s-.91-.93-1.37-1.38a27.11 27.11 0 0 1-3.08-3.77 2.23 2.23 0 0 1-.36-.89.92.92 0 0 1 .46-1 .87.87 0 0 1 1.08.08 4.26 4.26 0 0 1 .76.88 24.09 24.09 0 0 0 4.17 4.62c.58.54.62.53 1.3 0 2.64-2.11 5.28-4.23 7.93-6.33a8.78 8.78 0 0 1 1.47-.95.81.81 0 0 1 1 .29 1 1 0 0 1 .06 1.1 1.3 1.3 0 0 1-.38.43c-.41.33-.83.63-1.23 1-2.64 2.11-5.26 4.25-7.75 6.52 0 .58.48.78.79 1.07 1.59 1.53 3.21 3 4.82 4.55a6.34 6.34 0 0 1 .69.68.82.82 0 0 1 .14.91.89.89 0 0 1-.92.58 3 3 0 0 1-.92-.27 6.51 6.51 0 0 1-1.7-1.3c-1.41-1.34-2.81-2.7-4.23-4-.54-.52-.69-.54-1.15-.16-2.88 2.33-5.74 4.67-8.62 7a4.28 4.28 0 0 0 2.36 1.11 28.4 28.4 0 0 0 8 .23c3.89-.35 7.77-.74 11.66-1.1a6.69 6.69 0 0 1 .77 0c5.27-.55 10.52-1.31 15.81-1.74 1.48-.09 2.97-.52 4.51-.15Z"/><path fill="rgb(255, 255, 255)" d="M153.69 215.7a20.43 20.43 0 0 1-4.3 4 14.45 14.45 0 0 1-6.26 2.54c-3.55.44-5-1.5-5-4.34v-.78a.55.55 0 0 0-.68-.51 6.17 6.17 0 0 0-1 .14 43.7 43.7 0 0 0-10.1 4 3.81 3.81 0 0 0-1.81 1.69 2.08 2.08 0 0 1-1 1 1.17 1.17 0 0 1-1.28 0 1.18 1.18 0 0 1-.54-1.17 1.7 1.7 0 0 1 .58-1.2 1.89 1.89 0 0 0 .53-2 8.36 8.36 0 0 0-1.76-3.86c-.07-.08-.22-.09-.42-.17-.28.65-.55 1.3-.84 1.94a11.58 11.58 0 0 1-3.68 4.71 8.48 8.48 0 0 1-2.41 1.24 6.07 6.07 0 0 1-4.72-.5c-.75-.38-1.45-.86-2.2-1.25-1.13-.58-1.54-.5-2.38.42-.26.29-.49.61-.75.9s-.69.78-1.08 1.13c-1.75 1.6-3.27 1.3-4.29-.88a23 23 0 0 1-1-2.54c-.52-1.54-1-3.08-1.49-4.63a4 4 0 0 1-.2-.94 1 1 0 0 1 .62-.92.83.83 0 0 1 1 .28 6.37 6.37 0 0 1 1.24 2.61 24.22 24.22 0 0 0 1.67 5c.31.68.58.73 1.12.16s1-1.18 1.55-1.76c1.45-1.61 2.76-1.88 4.69-.93.76.38 1.49.81 2.21 1.25 1.8 1.1 3.46.73 5.07-.45a9.91 9.91 0 0 0 3.07-4.19c.29-.66.5-1.34.79-2 .66-1.47 1.81-1.75 3.15-.8a6.31 6.31 0 0 1 1.67 1.89 11 11 0 0 1 1.48 3.76c.54.34.88-.08 1.25-.26a46.54 46.54 0 0 1 9.82-3.7 6.61 6.61 0 0 1 1.92-.24 2.19 2.19 0 0 1 2.3 2 8.93 8.93 0 0 1 0 1.16 11.13 11.13 0 0 0 .05 1.16c.16 1.08.58 1.44 1.69 1.47a7.16 7.16 0 0 0 2.3-.38 15 15 0 0 0 5.93-3.63c.51-.5 1-1 1.45-1.58a6.42 6.42 0 0 1 .83-.82 1.43 1.43 0 0 1 1.8-.13c.48.34 1 .68 1.41 1 1 .78 1.88 1.61 2.87 2.34a16.2 16.2 0 0 0 3.88 2.22c.75.29 1 .83.89 1.32s-.78.84-1.6.69a7.44 7.44 0 0 1-2.32-1 30.77 30.77 0 0 1-4.11-3.16c-.49-.39-1-.79-1.61-1.3ZM199.85 309.63c0-5.53.26-10 .07-14.5a2.8 2.8 0 0 1 .07-.77 1 1 0 0 1 .81-.74.93.93 0 0 1 1 .51 3.4 3.4 0 0 1 .32 1.7v21.08c0 1.69.06 3.39.16 5.07a16.44 16.44 0 0 0 .4 2.7 3.19 3.19 0 0 0 2.66 2.52 29.38 29.38 0 0 0 8.16.26c6.17-.39 12.3-1.16 18.46-1.7 8.29-.74 16.59-1.35 24.92-1.65.71 0 1.42-.1 2.13-.12a.82.82 0 0 1 .77.5.88.88 0 0 1-.14 1.08 1.93 1.93 0 0 1-.79.54 5.53 5.53 0 0 1-1.34.23c-2.66.14-5.33.23-8 .4-3.63.23-7.27.48-10.89.78-4.74.38-9.47.78-14.19 1.25-3.76.37-7.51.76-11.28.93a45.7 45.7 0 0 1-7.21-.1 8.19 8.19 0 0 1-2.61-.73 5.14 5.14 0 0 1-2.64-3 13.46 13.46 0 0 1-.69-4c-.24-4.43-.12-8.87-.15-12.24ZM113.88 172.15c-.39-.33-.35-.82-.41-1.26-.2-1.48-.37-3-.55-4.45a2.81 2.81 0 0 1 0-.58 1.07 1.07 0 0 1 .85-1 1 1 0 0 1 1 .48c.13.22.23.47.34.7l.32.58c.19-.23.34-.43.51-.61a1.54 1.54 0 0 1 2.6.15c.21.3.24.93 0 1.09a7.1 7.1 0 0 1-2.2 1.14c-.28.06-.57-.34-1 0l.25 2.17c.51.27.8-.08 1.11-.24a9.24 9.24 0 0 1 4.69-1.1c1.5 0 3 .06 4.5 0a13.52 13.52 0 0 0 6.7-2c-.36-.39-.75-.22-1.07-.28s-.91-.12-1.34-.24a4.42 4.42 0 0 1-1.06-.48 9.65 9.65 0 0 1-1.07-.84c-.3-.25-.58-.53-.86-.79-.57 0-.59.63-1 .85a.93.93 0 0 1-1.42-.74 2.33 2.33 0 0 1 1.33-2.21 2 2 0 0 1 2.19.28 9.26 9.26 0 0 1 .86.8 3.65 3.65 0 0 0 4.1 1c1.17-.38 2.34-.79 3.49-1.23a6 6 0 0 1 2.09-.42c.76 0 1.44.13 1.67 1a.54.54 0 0 0 .57.42 19.28 19.28 0 0 0 6.37-.63 8.64 8.64 0 0 0 1.42-.65 2.85 2.85 0 0 0 1.5-1.94 8.53 8.53 0 0 1 .38-1.31 1.13 1.13 0 0 1 2-.2 2.89 2.89 0 0 1 .43.86 28.73 28.73 0 0 1 1.11 5.73v.39c0 .74-.25 1.14-.72 1.22a1.06 1.06 0 0 1-1.32-.84c-.16-.56-.27-1.14-.38-1.72-.07-.38-.09-.77-.14-1.15-.15 0-.31-.11-.37-.07-2.33 1.94-5.12 2.44-8 2.59-1 .05-2.08.06-3.12 0a8 8 0 0 0-4.42 1.29c-1.17.72-2.35 1.41-3.57 2a17.18 17.18 0 0 1-7 1.61h-2.54a9.51 9.51 0 0 0-6 1.27.92.92 0 0 1-.38.07 2 2 0 0 1-2.44-.71Z"/><path fill="rgb(255, 255, 255)" d="M60 290a23.27 23.27 0 0 1-7.37-1.06c-4.52-1.57-6.52-5-6.43-9.39a14.65 14.65 0 0 1 3.48-9.13 10.52 10.52 0 0 1 6.51-4 5 5 0 0 1 4 1 1.5 1.5 0 0 1 .67 1.33.93.93 0 0 1-.47.81.73.73 0 0 1-.91 0c-2-1.86-4-1.16-5.83.15a12.11 12.11 0 0 0-5.14 11.16 6.32 6.32 0 0 0 4.32 5.72 16.25 16.25 0 0 0 4.94 1 22.7 22.7 0 0 0 7.93-.59 2.57 2.57 0 0 1 1-.07 1 1 0 0 1 .86.69 1.12 1.12 0 0 1-.36 1.22 4 4 0 0 1-1.44.55A35.52 35.52 0 0 1 60 290ZM104.77 91c-.08-3.36-.15-5.77-.2-8.17a8 8 0 0 1 .1-1.55.89.89 0 0 1 .85-.69.9.9 0 0 1 1 .49 2.76 2.76 0 0 1 .35 2.07 4.23 4.23 0 0 0-.12 1.73c.09 1.88.23 3.76.28 5.65a116 116 0 0 0 1.16 14.18 71.14 71.14 0 0 0 2.8 11.94 27.63 27.63 0 0 0 1.18 2.88 7.09 7.09 0 0 0 2.26 2.89 3.88 3.88 0 0 1 .82.8.88.88 0 0 1-.07 1.09.83.83 0 0 1-.85.36 3.73 3.73 0 0 1-1.08-.42 7.24 7.24 0 0 1-2.71-3 29.23 29.23 0 0 1-2.34-6 83.39 83.39 0 0 1-2.67-13.56c-.53-3.84-.62-7.69-.76-10.69Z"/><path fill="rgb(255, 255, 255)" d="M233.87 202.68c-.37-.27-.69-.05-1-.06a8.8 8.8 0 0 1-1.54-.11 1.1 1.1 0 0 1-.8-1 1 1 0 0 1 .84-.93c.69-.15 1.39-.24 2.11-.37a5.12 5.12 0 0 0-.18-2 7.54 7.54 0 0 1-.18-2.72.9.9 0 0 1 .73-.8 1 1 0 0 1 1.15.5 3 3 0 0 1 .41 1.68 5.63 5.63 0 0 0 0 1.16c.22 2.11.23 2.12 2.33 1.84l10.24-1.4a5.18 5.18 0 0 1 1-.08 1 1 0 0 1 1 .82 1.09 1.09 0 0 1-.68 1.26 3.26 3.26 0 0 1-.75.17c-3.93.56-7.84 1.23-11.8 1.54a2.1 2.1 0 0 0-.47.22c.08 1.36.36 2.75.58 4.14.08.52.19 1 .22 1.54a1 1 0 0 1-.72 1 1.09 1.09 0 0 1-1.17-.49 4.66 4.66 0 0 1-.58-1.85 29.31 29.31 0 0 0-.74-4.06ZM113.88 172.15a4.36 4.36 0 0 0 2.54.79.92.92 0 0 1-.67.34c-.28 0-.5.16-.46.48.11 1-.57 1.41-1.3 1.7a12.39 12.39 0 0 1-2.25.58 23 23 0 0 1-7.36-.18c-1.34-.22-2.67-.47-4-.74a5.1 5.1 0 0 0-3.39.49 11.13 11.13 0 0 1-1.06.48 2.27 2.27 0 0 1-3-.92 16.34 16.34 0 0 1-2.1-5.2 1.13 1.13 0 0 1 1.31-1.44c.63.14 1.28.73 1.19 1.34a5.56 5.56 0 0 0 .9 3.31c.48 1 .57 1 1.62.53a6.21 6.21 0 0 0 .65-.39 2.25 2.25 0 0 1 1.17-.73 5.09 5.09 0 0 1 .56-.14c1 0 2-.28 2.91.4a29.68 29.68 0 0 0 7.49 1.1 12.6 12.6 0 0 0 4.79-.65c.58-.22.58-.21.46-1.15ZM236.07 163.07a4.1 4.1 0 0 0 3.07-.65c.55-.34 1.13-.65 1.7-1a4.56 4.56 0 0 1 4.47-.15 1 1 0 0 1 .17.1 7.23 7.23 0 0 0 6.37.52c1.23-.4 2.47-.8 3.69-1.24a3.16 3.16 0 0 1 1.32-.28 1 1 0 0 1 .89.63 1 1 0 0 1-.31 1.23 4 4 0 0 1-.87.44 42.43 42.43 0 0 1-5.94 1.82 7.51 7.51 0 0 1-4.94-.54 3.88 3.88 0 0 1-.36-.15 3.6 3.6 0 0 0-4.51.08 9 9 0 0 1-2.08 1 3.81 3.81 0 0 1-2.49.25c-.79-.24-1.2.13-1.53.76a1.8 1.8 0 0 1-.49.6.92.92 0 0 1-1.09.08.82.82 0 0 1-.42-1c.74-2.02 1.59-2.94 3.35-2.5Z"/><path fill="rgb(255, 255, 255)" d="M233.86 210.37a32.76 32.76 0 0 0-6.91.72 2.29 2.29 0 0 1-.58.06 20.5 20.5 0 0 0-5.19.49 42.21 42.21 0 0 0-5 .61 10.57 10.57 0 0 1-2.7 0 27.48 27.48 0 0 1 4.6-.7 8.36 8.36 0 0 0 2.52-.53 12.48 12.48 0 0 1-2.17-5.45 62.14 62.14 0 0 1-1.26-10.45v-1.17c.07-.85.66-1.44 1.33-1.35s1.42.94 1.18 1.55c-.88 2.22-.06 4.37.19 6.52a27.43 27.43 0 0 0 2.13 8.53 2.46 2.46 0 0 1-.08 1.88c2.85-.31 5.56-.61 8.28-.89.9-.1 1.81-.18 2.72-.23.33-.03.74-.03.94.41Z"/><path fill="rgb(255, 255, 255)" d="m105.26 170.26-.86 1.09a1.13 1.13 0 0 1-.84.42c-.58 0-1.1-.4-.94-.94.6-2.1 2.06-3.62 4.46-2.09a3.3 3.3 0 0 1 1.32 1.4.8.8 0 0 1-.08.91.89.89 0 0 1-1 .33 4.11 4.11 0 0 1-.83-.49 2.5 2.5 0 0 0-1.23-.63Z"/><path fill="rgb(255, 255, 255)" d="M207.35 90.89a1.86 1.86 0 0 1-.06.5.84.84 0 0 1-.81.7.83.83 0 0 1-.94-.51A8.78 8.78 0 0 1 205 89a1.06 1.06 0 0 1 .8-1.15 1.18 1.18 0 0 1 1.21.75 5.43 5.43 0 0 1 .34 2.29Z"/><path fill="rgb(255, 255, 255)" d="M207.54 110.63a2.94 2.94 0 0 1-.58-.3 2.16 2.16 0 0 1-.76-1.53 1.05 1.05 0 0 1 .7-1.06 1 1 0 0 1 1.06.3 2.38 2.38 0 0 1 .64 1.79 1 1 0 0 1-1.06.8Z"/><path fill="rgb(255, 255, 255)" d="M254.12 200.63a3.78 3.78 0 0 1-.3.7.85.85 0 0 1-1.18.22 1.67 1.67 0 0 1-.51-2.19 1 1 0 0 1 1.73 0 2.09 2.09 0 0 1 .26 1.27Z"/><path fill="rgb(255, 255, 255)" d="M423.14 387.84a48.19 48.19 0 0 1-7.78-.31c-2.46-.27-4.93-.39-7.39-.53a3 3 0 0 1-1.83-.54 1.07 1.07 0 0 1-.44-1.19 1 1 0 0 1 1.06-.68c.32 0 .65 0 1 .05l10.89.83c1.69.13 3.38.09 5.07.06 4.17-.08 8.31-.53 12.45-.92a24.91 24.91 0 0 0 3.08-.47c3.93-.86 7.91-1.57 11.74-2.81a40.82 40.82 0 0 0 11.53-5.56c.69-.49 1.41-.93 2.14-1.36a2.66 2.66 0 0 1 .9-.34 1.09 1.09 0 0 1 1.11.63 1 1 0 0 1-.14 1.09 3.59 3.59 0 0 1-.58.52 52.6 52.6 0 0 1-12.69 6.75 58.83 58.83 0 0 1-6.94 1.91c-2.4.57-4.82 1.07-7.23 1.57a28.75 28.75 0 0 1-2.89.42 96.25 96.25 0 0 1-13.06.88ZM398.56 324a1 1 0 0 1 .91.66 10.23 10.23 0 0 1 .26 1.34 41.28 41.28 0 0 0 11 22.39 42 42 0 0 0 13.55 9.67 7.57 7.57 0 0 1 1.37.75 1 1 0 0 1 .31 1.38 1 1 0 0 1-1.14.57 6.46 6.46 0 0 1-1.28-.44A45.72 45.72 0 0 1 408.07 349a42.84 42.84 0 0 1-10-19.58 35.31 35.31 0 0 1-.53-3.87 2.19 2.19 0 0 1 .1-.95.87.87 0 0 1 .92-.6Z"/><path fill="rgb(255, 255, 255)" d="M450 256.13a.92.92 0 0 1 1 .56 2.91 2.91 0 0 1 .19.94 36.42 36.42 0 0 0 10.41 22.51 57.07 57.07 0 0 0 9.85 8.23 5.7 5.7 0 0 1 1.05.84 1.1 1.1 0 0 1 0 1.28 1 1 0 0 1-1 .36 2.32 2.32 0 0 1-.73-.24 11.22 11.22 0 0 1-1.34-.79 56.71 56.71 0 0 1-13.6-13 35.74 35.74 0 0 1-5.83-12.67 29.47 29.47 0 0 1-.93-5.75 6.71 6.71 0 0 1 .11-1.55 1 1 0 0 1 .82-.72Z"/><path fill="rgb(255, 255, 255)" d="M469.13 250.77A37.45 37.45 0 0 1 468 260c-1.06 4.56-2.46 9-3.84 13.48a6.17 6.17 0 0 1-.81 2 1.18 1.18 0 0 1-1.36.5 1.1 1.1 0 0 1-.67-1.26 11 11 0 0 1 .36-1.11c1.6-5.14 3.2-10.28 4.38-15.55a49.54 49.54 0 0 0 1-9.08 9.55 9.55 0 0 0-.21-2.32 1 1 0 0 1 .73-1.19 1.08 1.08 0 0 1 1.26.67 3.59 3.59 0 0 1 .27 1.52c.03 1.03.02 2.07.02 3.11Z"/><path fill="rgb(255, 255, 255)" d="M459.25 226.2a15.47 15.47 0 0 1 4.55.59 6.26 6.26 0 0 1 2 1.1 1.73 1.73 0 0 1 .61 1 .93.93 0 0 1-.95 1.16 2.41 2.41 0 0 1-1.1-.35 11 11 0 0 0-7-1.15c-.58.07-1.15.17-1.73.26a2.64 2.64 0 0 0-2.13 1.12.76.76 0 0 1-1 .23 1.08 1.08 0 0 1-.66-.89 1.57 1.57 0 0 1 .59-1.55 6.27 6.27 0 0 1 2.12-.92 26.62 26.62 0 0 1 4.7-.6Z"/><path fill="rgb(255, 255, 255)" d="M419 149a1.25 1.25 0 0 1-.76 1.06.88.88 0 0 1-1.05-.29 14.5 14.5 0 0 1-1.07-1.38 9.28 9.28 0 0 0-6.22-3.63 4.34 4.34 0 0 0-2.31.15 3.73 3.73 0 0 1-.93.23.92.92 0 0 1-1.06-.65 1.05 1.05 0 0 1 .45-1.18 4.32 4.32 0 0 1 1.44-.58 8.05 8.05 0 0 1 3.28 0 11.31 11.31 0 0 1 7.65 4.88A2.39 2.39 0 0 1 419 149Z"/><path fill="rgb(255, 255, 255)" d="M394 142a13.12 13.12 0 0 1 3.65.56 3.51 3.51 0 0 1 .89.38 1.1 1.1 0 0 1 .43 1.19 1 1 0 0 1-1 .8 5 5 0 0 1-1.13-.19 13.81 13.81 0 0 0-3.07-.46c-2.28.09-4.17.83-5.25 3a4.77 4.77 0 0 1-.65 1 1 1 0 0 1-1.23.18 1 1 0 0 1-.46-1.17 4.49 4.49 0 0 1 .31-.71c1.51-3.15 4.11-4.43 7.51-4.58Z"/><path fill="rgb(255, 255, 255)" d="M403.45 170.69a5.38 5.38 0 0 1-4.61-3.63 2.19 2.19 0 0 1 .17-1.33 4.74 4.74 0 0 1 2.82-2.52 1 1 0 0 1 1.31.56 1 1 0 0 1-.46 1.32c-.43.3-.88.55-1.28.88a.81.81 0 0 0-.06 1.21 2.51 2.51 0 0 0 2.9 1c1-.33 1.54 0 1.71.65s-.19 1.07-1 1.46a3.91 3.91 0 0 1-1.5.4Z"/><path fill="rgb(255, 255, 255)" d="M438.77 152.48a3.94 3.94 0 0 1-.69 2.61 2.08 2.08 0 0 1-.75.57 1 1 0 0 1-1.28-1 .55.55 0 0 1 .06-.18 4.56 4.56 0 0 0 .22-3.74 1 1 0 0 1 .64-1.25 1.08 1.08 0 0 1 1.29.58 5.51 5.51 0 0 1 .51 2.41Z"/><path d="M169.53 319.61a6.22 6.22 0 0 0-2.27-1.79 9.64 9.64 0 0 0-5.3-1c-1.29.1-2.58.29-3.87.45-1.93.24-3.73.11-5.28-1.33-1-.92-1.87-.78-2.92.18-.67.62-1.31 1.27-2 1.9a8.79 8.79 0 0 1-2 1.51 3.28 3.28 0 0 1-3.83-.23c-.37-.27-.73-.54-1.09-.83a2.76 2.76 0 0 0-3.88.19 15.78 15.78 0 0 0-2 2.35c-.25.34-.42.83-1 .82a11.58 11.58 0 0 0-2.41-2.74 4.83 4.83 0 0 0-5.15-.56 8 8 0 0 0-2.5 1.83l-1.23 1.3a7.58 7.58 0 0 1-.92-2.2 6.8 6.8 0 0 0-.92-1.92 1.55 1.55 0 0 0-2.39-.2 8.05 8.05 0 0 0-.85 1.06c-.54.73-1.06 1.48-1.6 2.21a6.45 6.45 0 0 1-1.85 1.72 1.36 1.36 0 0 1-1.79-.14c-.35-.3-.64-.65-1-1s-.83-.83-1.29-1.19a2.51 2.51 0 0 0-3.53.06 12.68 12.68 0 0 0-1.11 1.09c-.45.47-.88 1-1.33 1.43s-.76.38-1-.2a41.71 41.71 0 0 1-1.6-4.6 8.69 8.69 0 0 0-.67-1.61 1 1 0 0 0-1.22-.33.88.88 0 0 0-.59.92 4.56 4.56 0 0 0 .17 1.34c.63 1.78 1.3 3.53 2 5.29a5.16 5.16 0 0 0 .47.86c.93 1.43 2.08 1.62 3.43.51a16.21 16.21 0 0 0 1.38-1.37c.45-.47.87-1 1.34-1.42s.74-.4 1.19 0c.66.63 1.28 1.29 1.94 1.92a3.59 3.59 0 0 0 4.34.37 10.19 10.19 0 0 0 2.32-2.07c.5-.6.94-1.25 1.42-1.86.25-.32.6-.28.73.09a32 32 0 0 0 1.64 4.37 6.88 6.88 0 0 1-.87.28l-6.17.91c-6.24.94-12.51 1.63-18.78 2.31-1.81.2-3.6.52-5.41.75a3.48 3.48 0 0 0-1.61.62 1.28 1.28 0 0 0-.34 1.58 1 1 0 0 0 1.48.4 5.51 5.51 0 0 1 1.84-.59l7.36-.86c4.59-.55 9.18-1.05 13.75-1.68 4.95-.69 9.89-1.53 14.84-2.25 4.31-.63 8.62-1.26 13-1.76 5.23-.61 10.46-1.2 15.74-1.32 3.45-.09 6.89-.24 10.34-.37a6.09 6.09 0 0 0 2.11-.29 1.81 1.81 0 0 0 .74-2.91Zm-38.6 3.94c-2.36.24-4.67.83-7.27 1a9.68 9.68 0 0 1 3.48-3.78 2.65 2.65 0 0 1 3.24.27 5.52 5.52 0 0 1 1.62 2.07 1.24 1.24 0 0 1-1.07.44Zm5.85-.82a6 6 0 0 1 2-2.5.73.73 0 0 1 .9.09c.72.53 1.42 1.07 2.3 1.73-1.77.39-3.41.46-5.2.68Zm24.31-1.91c-2 .11-4 .1-6 .19s-3.89.24-5.83.37c-.53.12-1.11.41-1.34-.41 1.31-.85 2.27-2.12 3.48-3.05a1.2 1.2 0 0 1 .41.11 7.34 7.34 0 0 0 5.85 1.5c1.36-.18 2.71-.31 4.07-.46a8.21 8.21 0 0 1 4.72.83c.22.1.49.21.43.64a54.94 54.94 0 0 1-5.79.28Z"/><path fill="rgb(255, 255, 255)" d="m411.26 153.78-.39.32Z"/></g></svg>
