<svg width="42" height="44" viewBox="0 0 42 44" fill="none" xmlns="http://www.w3.org/2000/svg">
<path d="M35.3028 12.3029C35.3827 13.5228 35.2828 14.9026 35.0428 16.4424L33.583 25.8213C32.3431 33.6403 28.7236 36.28 20.9045 35.0601L11.5257 33.5803C8.82602 33.1604 6.74627 32.4404 5.22646 31.3606C2.32682 29.3408 1.48692 26.0212 2.28682 20.9019L3.76664 11.523C5.00649 3.70398 8.62604 1.0643 16.4451 2.28415L25.8239 3.76397C32.1032 4.74385 35.0428 7.30353 35.3028 12.3029Z" stroke="#101010" stroke-width="3" stroke-linecap="round" stroke-linejoin="round"/>
<path d="M39.0424 24.9413L36.0428 33.9602C33.5431 41.4793 29.5436 43.4791 22.0245 40.9794L13.0056 37.9797C8.46616 36.4799 5.94647 34.4002 5.22656 31.3605C6.74638 32.4404 8.82612 33.1603 11.5258 33.5803L20.9046 35.0601C28.7237 36.2799 32.3432 33.6403 33.5831 25.8212L35.0429 16.4424C35.2829 14.9026 35.3828 13.5227 35.3029 12.3029C40.0823 14.8426 41.1221 18.6821 39.0424 24.9413ZM14.5254 15.9624C14.9824 15.9624 15.4348 15.8724 15.857 15.6976C16.2792 15.5227 16.6627 15.2664 16.9858 14.9433C17.309 14.6202 17.5653 14.2366 17.7401 13.8144C17.915 13.3923 18.005 12.9398 18.005 12.4829C18.005 12.0259 17.915 11.5735 17.7401 11.1513C17.5653 10.7291 17.309 10.3455 16.9858 10.0224C16.6627 9.69933 16.2792 9.44303 15.857 9.26816C15.4348 9.0933 14.9824 9.0033 14.5254 9.0033C13.6026 9.0033 12.7175 9.36989 12.065 10.0224C11.4124 10.675 11.0458 11.56 11.0458 12.4829C11.0458 13.4057 11.4124 14.2907 12.065 14.9433C12.7175 15.5958 13.6026 15.9624 14.5254 15.9624Z" stroke="#101010" stroke-width="3" stroke-linecap="round" stroke-linejoin="round"/>
</svg>