<svg width="44" height="44" viewBox="0 0 44 44" fill="none" xmlns="http://www.w3.org/2000/svg">
<path d="M16 24C14.68 24.66 13.58 25.64 12.76 26.86C12.3 27.56 12.3 28.44 12.76 29.14C13.58 30.36 14.68 31.34 16 32M28.42 24C29.74 24.66 30.84 25.64 31.66 26.86C32.12 27.56 32.12 28.44 31.66 29.14C30.84 30.36 29.74 31.34 28.42 32" stroke="#101010" stroke-width="3" stroke-linecap="round" stroke-linejoin="round"/>
<path d="M2.46 14.02L40.9 14M16 42H28C38 42 42 38 42 28V16C42 6 38 2 28 2H16C6 2 2 6 2 16V28C2 38 6 42 16 42Z" stroke="#101010" stroke-width="3" stroke-linecap="round" stroke-linejoin="round"/>
</svg>